<?xml version="1.0" encoding="UTF-8"?>
<svg width="166px" height="48px" viewBox="0 0 166 48" version="1.1" xmlns="http://www.w3.org/2000/svg" xmlns:xlink="http://www.w3.org/1999/xlink">
    <!-- Generator: Sketch 42 (36781) - http://www.bohemiancoding.com/sketch -->
    <title>logo</title>
    <desc>Created with Sketch.</desc>
    <defs>
        <ellipse id="path-1" cx="24" cy="24" rx="24" ry="24"></ellipse>
        <mask id="mask-2" maskContentUnits="userSpaceOnUse" maskUnits="objectBoundingBox" x="0" y="0" width="48" height="48" fill="white">
            <use xlink:href="#path-1"></use>
        </mask>
    </defs>
    <g id="Page-1" stroke="none" stroke-width="1" fill="none" fill-rule="evenodd">
        <g id="logo">
            <path d="M67.2175558,42.6403649 C67.2175558,42.846571 67.1488215,43.0218435 67.0113507,43.1661878 C66.87388,43.3105321 66.7020442,43.3827031 66.4958381,43.3827031 L65.4648127,43.3827031 C65.2586066,43.3827031 65.0867708,43.3105321 64.9493,43.1661878 C64.8118293,43.0218435 64.7499684,42.846571 64.7637155,42.6403649 C64.7774625,42.3104351 64.7912094,41.753687 64.8049565,40.9701038 C64.8049565,40.9151155 64.7774628,40.9013687 64.7224745,40.9288628 C63.9526384,41.3550221 63.3752699,41.781175 62.9903519,42.2073342 C62.6054338,42.6334935 62.4129777,43.0940136 62.4129777,43.5889082 C62.4129777,44.1525382 62.6535479,44.5374505 63.1346954,44.7436566 C63.615843,44.9498627 64.392541,45.0529642 65.4648127,45.0529642 C67.1419557,45.0529642 68.8809344,44.8948752 70.681801,44.5786925 C70.8605129,44.5511984 71.0220386,44.5993124 71.1663829,44.7230361 C71.3107272,44.8467597 71.3828982,44.9979753 71.3828982,45.1766872 L71.3416572,46.4345382 C71.3279101,46.6544913 71.2488656,46.840074 71.1045214,46.9912919 C70.9601771,47.1425097 70.7849045,47.2318643 70.5786984,47.2593584 C68.7915789,47.4243233 67.0663471,47.5068045 65.4029512,47.5068045 C64.5368856,47.5068045 63.7739344,47.4518171 63.1140749,47.3418405 C62.4542154,47.2318639 61.8562267,47.0462812 61.3200908,46.7850868 C60.7839549,46.5238924 60.3715489,46.1630371 60.0828604,45.7025102 C59.7941718,45.2419832 59.6498297,44.6817984 59.6498297,44.0219388 C59.6498297,43.4033205 59.7838617,42.8122053 60.0519296,42.2485752 C60.3199976,41.6849452 60.7049098,41.1728744 61.206678,40.7123475 C61.7084462,40.2518205 62.2136436,39.8531614 62.7222853,39.5163581 C63.230927,39.1795548 63.8220423,38.8393198 64.4956489,38.495643 C64.5506372,38.4681488 64.5575106,38.4269082 64.5162694,38.3719199 C64.2138338,37.9457607 63.7464403,37.7326842 63.1140749,37.7326842 C62.5504449,37.7326842 61.9730765,37.8701529 61.3819523,38.1450944 C60.7908282,38.4200358 60.2821941,38.7637075 59.8560348,39.1761197 C59.4711168,39.5472907 58.9693561,40.1246591 58.3507378,40.9082423 C58.2270141,41.0594601 58.0654884,41.1488147 57.8661559,41.1763089 C57.6668233,41.203803 57.4846773,41.155689 57.3197124,41.0319653 L56.2474461,40.2483861 C56.0824812,40.1246624 56,39.9597 56,39.7534939 C56,39.5747819 56.0687343,39.4235664 56.2062051,39.2998427 C58.0345658,37.5402173 59.3748854,35.821859 60.2272039,34.144716 C60.2546981,34.0897277 60.2409512,34.062234 60.1859629,34.062234 L60.0209989,34.062234 C59.0999449,34.062234 58.165158,34.0347402 57.2166099,33.9797519 C57.0104038,33.9660049 56.838568,33.8800869 56.7010972,33.7219956 C56.5636265,33.5639043 56.4948922,33.3817583 56.4948922,33.1755522 L56.4948922,32.2063883 C56.4948922,32.0139293 56.5670632,31.8524036 56.7114075,31.7218064 C56.8557518,31.5912092 57.0241509,31.5396585 57.2166099,31.5671526 C58.1101697,31.6496351 59.0930707,31.6908757 60.1653424,31.6908757 L61.0932652,31.6908757 C61.1482535,31.6908757 61.1826207,31.6633819 61.1963678,31.6083936 C61.3475856,31.0310166 61.4575605,30.5086356 61.5262959,30.0412351 C61.55379,29.835029 61.6431447,29.6700666 61.7943625,29.5463429 C61.9318332,29.4226193 62.0899222,29.3607584 62.2686341,29.3607584 C62.2823812,29.3607584 62.3030015,29.3676318 62.3304956,29.3813789 L63.6089671,29.4844814 C63.8014261,29.4982285 63.9560784,29.5841464 64.0729285,29.7422378 C64.1897786,29.9003291 64.2275825,30.0756017 64.1863413,30.2680607 C64.0901118,30.707967 63.9801368,31.1272465 63.8564132,31.5259116 C63.8426661,31.5808999 63.8701598,31.6083936 63.9388952,31.6083936 C65.9734621,31.498417 67.6712002,31.3334546 69.0321604,31.1135015 C69.2108724,31.0860073 69.3758348,31.1341214 69.5270526,31.257845 C69.6782704,31.3815687 69.7538782,31.5396576 69.7538782,31.7321167 L69.7332577,32.721901 C69.7332577,32.9281071 69.6645233,33.1102531 69.5270526,33.2683444 C69.3895819,33.4264358 69.217746,33.5192271 69.0115399,33.5467213 C67.348144,33.7529274 65.3479749,33.9041429 63.0109724,34.0003724 C62.942237,34.0003724 62.894123,34.0278662 62.8666288,34.0828545 C62.522952,34.8251964 62.1517866,35.4781726 61.7531215,36.0418026 L61.7634317,36.0624231 C61.7703052,36.0761702 61.7806154,36.0761702 61.7943625,36.0624231 C62.3717395,35.8149758 63.1278172,35.691254 64.0626182,35.691254 C64.6949836,35.691254 65.2517317,35.8218493 65.7328793,36.0830437 C66.2140269,36.344238 66.5783189,36.7291503 66.8257662,37.237792 C66.8532603,37.2927803 66.8945009,37.3065272 66.9494892,37.2790331 C66.9632363,37.265286 67.877403,36.8597534 69.6920166,36.0624231 C70.0906818,35.8837112 70.633683,35.6293941 71.3210367,35.2994644 C71.4997487,35.2169819 71.6853314,35.2101085 71.8777904,35.2788439 C72.0702494,35.3475792 72.2077181,35.4781745 72.2902005,35.6706335 L72.7438517,36.7428999 C72.7850929,36.8253823 72.8057132,36.914737 72.8057132,37.0109665 C72.8057132,37.0934489 72.7850929,37.1828035 72.7438517,37.2790331 C72.6613692,37.4439979 72.5239006,37.5608463 72.3314415,37.6295817 C71.8090528,37.8082936 71.2179375,38.0351169 70.5580779,38.3100584 C69.252106,38.8049531 68.1454832,39.2654731 67.2381763,39.6916324 C67.183188,39.7053795 67.1556943,39.7466201 67.1556943,39.8153554 C67.1694414,40.2415147 67.1900617,41.1831751 67.2175558,42.6403649 Z M76.1874764,30.6598503 C76.2012234,30.4536442 76.2837046,30.2852451 76.4349224,30.1546479 C76.5861402,30.0240507 76.7579761,29.9656265 76.9504351,29.9793736 L78.3938706,30.1030966 C78.5863296,30.1305908 78.7341085,30.2199454 78.8372115,30.3711632 C78.9403146,30.522381 78.9643716,30.6873434 78.9093833,30.8660554 C78.8131538,31.2509734 78.7169257,31.6427592 78.6206962,32.0414243 C78.4419842,32.8525016 78.2323445,34.1618907 77.9917707,35.9696309 C77.7511969,37.777371 77.6309118,39.1623679 77.6309118,40.124663 C77.6309118,40.6058106 77.6584056,41.02509 77.7133939,41.382514 C77.7133939,41.396261 77.7202673,41.4031345 77.7340144,41.4031345 C77.7477615,41.4031345 77.7546349,41.396261 77.7546349,41.382514 C77.8921056,41.02509 78.0914352,40.56457 78.3526296,40.00094 C78.421365,39.8359751 78.5450868,39.7328736 78.7237987,39.6916324 C78.9025107,39.6503912 79.0674731,39.6847583 79.2186909,39.7947349 L79.3630344,39.918458 C79.5417464,40.0559287 79.6585948,40.2312012 79.713583,40.4442809 C79.7685713,40.6573605 79.7616979,40.8670002 79.6929625,41.0732063 C79.033103,43.0252908 78.6138236,44.454965 78.4351116,45.3622718 C78.3663762,45.7059486 78.3320091,45.980886 78.3320091,46.1870921 L78.3320091,46.4551587 C78.3320091,46.6613648 78.2632747,46.840074 78.125804,46.9912919 C77.9883333,47.1425097 77.8233709,47.2249909 77.6309118,47.2387379 L76.7236095,47.32122 L76.6411275,47.32122 C76.4624156,47.32122 76.2905797,47.2662325 76.1256148,47.1562559 C75.96065,47.0325323 75.850675,46.8675698 75.7956867,46.6613637 C75.3695274,44.8604971 75.156451,42.8672014 75.156451,40.6814167 C75.156451,38.5231262 75.4451352,35.6225372 76.0225123,31.9795628 C76.1049947,31.4434269 76.1599822,31.0035271 76.1874764,30.6598503 Z M86.786417,42.9084315 L86.786417,42.6403649 C86.786417,42.5853766 86.7520498,42.544136 86.6833144,42.5166418 C86.1471786,42.3791711 85.6179242,42.3104368 85.0955354,42.3104368 C84.4906641,42.3104368 84.0060871,42.4272851 83.6417896,42.6609854 C83.2774922,42.8946856 83.0953462,43.2039901 83.0953462,43.5889082 C83.0953462,43.9875733 83.2740555,44.2900044 83.6314794,44.4962105 C83.9889033,44.7024166 84.4631702,44.8055181 85.0542944,44.8055181 C85.6729127,44.8055181 86.1162491,44.6474291 86.3843171,44.3312465 C86.652385,44.0150638 86.786417,43.5407968 86.786417,42.9084315 Z M92.848846,43.2589801 C93.0000638,43.3964508 93.0894185,43.5751601 93.1169126,43.7951133 C93.1306597,43.8363545 93.1375331,43.8707217 93.1375331,43.8982158 C93.1375331,44.0631807 93.0894191,44.2212697 92.9931896,44.3724875 L92.3745743,45.3416513 C92.2645978,45.4928691 92.1168189,45.5822237 91.9312334,45.6097179 C91.745648,45.637212 91.5772488,45.5822246 91.426031,45.4447538 C90.7799186,44.8673767 90.1406893,44.3587427 89.5083239,43.9188363 C89.4670827,43.8775951 89.4395889,43.891342 89.4258418,43.9600773 C89.3433594,44.9911078 88.972194,45.802173 88.3123345,46.3932972 C87.6524749,46.9844213 86.6627005,47.279979 85.3429815,47.279979 C83.8857917,47.279979 82.741365,46.9809846 81.909667,46.3829869 C81.0779691,45.7849892 80.6621264,44.9429936 80.6621264,43.8569748 C80.6621264,42.7847031 81.0814058,41.9186504 81.9199773,41.2587909 C82.7585488,40.5989314 83.8857919,40.2690066 85.3017404,40.2690066 C85.7966351,40.2690066 86.222788,40.2896269 86.5802119,40.3308681 C86.6352002,40.3446152 86.6626939,40.3239949 86.6626939,40.2690066 C86.5939585,38.6880931 86.5458445,37.3202798 86.5183504,36.1655257 C86.5183504,36.0967903 86.4908566,36.0624231 86.4358683,36.0624231 C86.1196856,36.0761702 85.6522922,36.0830437 85.0336739,36.0830437 C84.0576316,36.0830437 83.0816041,36.0555499 82.1055619,36.0005616 C81.8993558,35.9868146 81.7240832,35.9077701 81.5797389,35.7634258 C81.4353947,35.6190815 81.3632236,35.443809 81.3632236,35.2376029 L81.3632236,34.2065775 C81.3632236,34.0141185 81.4353947,33.8491561 81.5797389,33.7116853 C81.7240832,33.5742146 81.8993558,33.5192271 82.1055619,33.5467213 C83.067857,33.6292037 84.0438846,33.6704443 85.0336739,33.6704443 C85.6522922,33.6704443 86.1128122,33.6635709 86.4152478,33.6498238 C86.4702361,33.6360768 86.4977299,33.6017096 86.4977299,33.5467213 C86.4977299,33.299274 86.4942931,33.0037163 86.4874196,32.6600395 C86.4805461,32.3163627 86.4771093,32.0379886 86.4771093,31.824909 C86.4771093,31.6118293 86.4702359,31.4434302 86.4564888,31.3197065 C86.4564888,31.1684887 86.442742,30.9485389 86.4152478,30.6598503 C86.4015008,30.4673913 86.4599249,30.2989922 86.5905221,30.1546479 C86.7211193,30.0103036 86.882645,29.9381326 87.075104,29.9381326 L88.6010216,29.9381326 C88.7934806,29.9381326 88.9550063,30.0103036 89.0856035,30.1546479 C89.2162007,30.2989922 89.2677514,30.4673913 89.2402573,30.6598503 C89.2265102,30.8660564 89.2127633,31.0791329 89.1990163,31.299086 C89.157775,32.1926458 89.1371547,32.8868626 89.1371547,33.3817572 C89.1371547,33.4367455 89.1715219,33.4642393 89.2402573,33.4642393 C90.1888053,33.3542627 90.9929971,33.2374143 91.6528566,33.1136906 C91.8453156,33.0861965 92.0137148,33.1343105 92.158059,33.2580342 C92.3024033,33.3817579 92.3745743,33.5329734 92.3745743,33.7116853 L92.3745743,34.8458132 C92.3745743,35.0520193 92.30584,35.237602 92.1683693,35.4025669 C92.0308985,35.5675318 91.8590627,35.6637599 91.6528566,35.691254 C90.8280322,35.7874835 90.016967,35.8699647 89.2196368,35.9387001 C89.1509014,35.9387001 89.1165342,35.9730673 89.1165342,36.0418026 C89.1440284,37.2652922 89.2196362,38.9011694 89.3433598,40.9494833 C89.3433598,41.0182187 89.377727,41.0663327 89.4464624,41.0938269 C90.6012165,41.5749744 91.7353331,42.296685 92.848846,43.2589801 Z M102.746689,32.8662446 C102.636713,32.7150268 102.609219,32.5466276 102.664207,32.3610421 C102.719196,32.1754566 102.829171,32.0482981 102.994135,31.9795628 L103.489028,31.7733577 C103.681487,31.6908752 103.880816,31.6805651 104.087022,31.7424269 C104.293228,31.8042888 104.451317,31.9245738 104.561294,32.1032858 C105.042442,32.8593748 105.461721,33.5673385 105.819145,34.227198 C105.915374,34.40591 105.929121,34.588056 105.860386,34.7736415 C105.791651,34.9592269 105.661055,35.0932589 105.468596,35.1757413 L104.911843,35.4231874 C104.733131,35.5056699 104.547548,35.5091066 104.355089,35.4334977 C104.16263,35.3578888 104.025161,35.2307303 103.942679,35.0520183 C103.557761,34.240941 103.159102,33.512357 102.746689,32.8662446 Z M105.61294,31.7733577 C105.502963,31.6083928 105.472033,31.436557 105.520148,31.257845 C105.568262,31.0791331 105.674801,30.9485378 105.839765,30.8660554 L106.334658,30.6392298 C106.527117,30.5567474 106.726446,30.5430005 106.932652,30.5979888 C107.138858,30.6529771 107.296947,30.7698255 107.406924,30.9485374 C107.915566,31.6771323 108.348592,32.3576022 108.706016,32.9899676 C108.802245,33.1686796 108.819429,33.3542623 108.757567,33.5467213 C108.695705,33.7391803 108.568547,33.876649 108.376088,33.9591314 L107.860575,34.2065775 C107.681863,34.28906 107.49628,34.2993701 107.303821,34.2375083 C107.111362,34.1756464 106.96702,34.0553614 106.870791,33.8766494 C106.444631,33.0930662 106.025352,32.391976 105.61294,31.7733577 Z M95.4882709,30.5361273 C95.4607768,30.3436682 95.5088908,30.1752691 95.6326145,30.0309248 C95.7563381,29.8865806 95.9075537,29.8144095 96.0862656,29.8144095 L98.0039728,29.83503 C98.1964318,29.83503 98.3545208,29.9072011 98.4782444,30.0515454 C98.6019681,30.1958896 98.6500821,30.3642887 98.622588,30.5567478 C98.5263585,31.3128368 98.471371,32.0001802 98.4576239,32.6187985 C98.292659,36.2342788 98.2101778,39.4098051 98.2101778,42.1454727 C98.2101778,44.0150747 99.1655851,44.9498617 101.076428,44.9498617 C103.784602,44.9498617 106.032215,43.7332639 107.819334,41.3000319 C107.929311,41.1488141 108.073653,41.0697696 108.252365,41.0628961 C108.431077,41.0560226 108.582292,41.1213202 108.706016,41.2587909 L109.67518,42.4547803 C109.826398,42.6334923 109.902005,42.8328218 109.902005,43.052775 C109.902005,43.2589811 109.840144,43.4445638 109.716421,43.6095287 C109.304009,44.1319175 108.836615,44.6199313 108.314226,45.0735847 C107.791837,45.5272381 107.176665,45.9671379 106.468691,46.3932972 C105.760717,46.8194564 104.939341,47.1596914 104.00454,47.4140122 C103.069739,47.6683331 102.086838,47.7954916 101.055808,47.7954916 C99.2824353,47.7954916 97.9008752,47.3796489 96.9110859,46.547951 C95.9212966,45.716253 95.4264094,44.4412311 95.4264094,42.7228469 C95.4264094,41.7055635 95.4607766,39.8978504 95.5295119,37.2996536 C95.5982473,34.7014567 95.6326145,33.1411873 95.6326145,32.6187985 C95.6326145,31.8627094 95.5845004,31.1684926 95.4882709,30.5361273 Z M115.923193,43.4033236 C116.583053,43.4033236 117.325384,42.8946896 118.150208,41.8774061 C118.177702,41.8361649 118.177702,41.7880509 118.150208,41.7330626 C117.53159,40.7570204 116.912981,39.4716883 116.294362,37.8770278 C116.280615,37.8632807 116.263432,37.8564073 116.242811,37.8564073 C116.222191,37.8564073 116.205007,37.8632807 116.19126,37.8770278 C115.737607,38.4406578 115.380188,39.0627035 115.118994,39.7431836 C114.857799,40.4236638 114.727204,41.0869501 114.727204,41.7330626 C114.727204,42.2417043 114.833742,42.6472369 115.046822,42.9496725 C115.259901,43.2521081 115.552022,43.4033236 115.923193,43.4033236 Z M121.614453,35.0932593 C121.614453,35.0795122 121.60758,35.0623287 121.593833,35.041708 C121.580086,35.0210874 121.566339,35.0176507 121.552592,35.0313978 C120.439079,35.1688685 119.38057,35.5331605 118.377034,36.1242847 C118.335792,36.1517788 118.322046,36.1998928 118.335793,36.2686282 C118.803193,37.5608531 119.270587,38.605615 119.737987,39.4029453 C119.751734,39.4166924 119.768918,39.4270025 119.789538,39.433876 C119.810159,39.4407496 119.820469,39.4304394 119.820469,39.4029453 C120.480329,38.2069499 121.078317,36.7704023 121.614453,35.0932593 Z M125.037457,32.0414243 L124.872493,32.7425215 C124.858746,32.8112569 124.879367,32.8524975 124.934355,32.8662446 C126.570257,33.2511626 127.879646,34.0691012 128.862561,35.3200849 C129.845477,36.5710686 130.336928,38.0969708 130.336928,39.8978374 C130.336928,41.9186572 129.721755,43.5648446 128.491392,44.8364489 C127.261029,46.1080532 125.607969,46.9569222 123.53216,47.3830815 C123.449678,47.3968286 123.37407,47.403702 123.305335,47.403702 C123.167864,47.403702 123.030395,47.3762083 122.892925,47.32122 C122.686719,47.2249905 122.521756,47.0875218 122.398033,46.9088098 L121.593833,45.7128204 C121.51135,45.5753497 121.504477,45.4310076 121.573212,45.2797898 C121.641948,45.128572 121.758796,45.0460908 121.923761,45.0323437 C123.848351,44.7574022 125.274589,44.1387932 126.202516,43.1764981 C127.130444,42.2142029 127.5944,41.0663395 127.5944,39.7328734 C127.5944,38.5918663 127.305716,37.6192754 126.728339,36.8150717 C126.150962,36.0108679 125.34677,35.4575565 124.31574,35.1551208 C124.247004,35.1413738 124.205764,35.1619941 124.192017,35.2169824 C123.367192,37.9938912 122.453026,40.1590228 121.449489,41.7124421 C121.408248,41.7674304 121.408248,41.8155444 121.449489,41.8567856 C121.655695,42.0904859 121.848151,42.3035623 122.026863,42.4960213 C122.150587,42.6472391 122.209011,42.819075 122.202138,43.011534 C122.195264,43.203993 122.11622,43.362082 121.965002,43.4858057 L121.016459,44.2487644 C120.851494,44.3724881 120.665911,44.4274756 120.459705,44.4137285 C120.253499,44.3999814 120.081663,44.3175002 119.944192,44.1662824 C119.889204,44.0838 119.834216,44.0150656 119.779228,43.9600773 C119.737987,43.905089 119.696746,43.8982156 119.655505,43.9394568 C118.940657,44.7092929 118.270498,45.2660411 117.645006,45.6097179 C117.019514,45.9533947 116.335607,46.1252306 115.593265,46.1252306 C114.685958,46.1252306 113.905824,45.7506284 113.252838,45.0014129 C112.599852,44.2521974 112.273364,43.2314925 112.273364,41.9392676 C112.273364,40.7570193 112.544864,39.5782255 113.087874,38.4028507 C113.630883,37.2274759 114.362904,36.2205179 115.283958,35.3819464 C115.325199,35.3407052 115.338946,35.2925912 115.325199,35.2376029 C115.105245,34.6327316 114.93341,34.0966038 114.809686,33.6292033 C114.644721,33.1068145 114.459138,32.6050539 114.252932,32.1239063 C114.184197,31.9451944 114.187634,31.7699218 114.263243,31.5980834 C114.338851,31.426245 114.472883,31.3128333 114.665342,31.257845 L116.005675,30.8248144 C116.184387,30.7698261 116.35966,30.7938831 116.531498,30.8969861 C116.703337,31.0000892 116.809875,31.147868 116.851116,31.340327 C116.947346,31.7527392 117.050447,32.1720187 117.160424,32.598178 C117.284147,33.0380843 117.400996,33.4367435 117.510972,33.7941674 C117.538467,33.8629027 117.579707,33.883523 117.634695,33.8560289 C119.050644,33.127434 120.569673,32.7287749 122.191827,32.6600395 C122.246816,32.6462924 122.281183,32.6119252 122.29493,32.556937 L122.480515,31.6290141 C122.54925,31.2578432 122.597364,30.8385637 122.624858,30.3711632 C122.638605,30.1787042 122.714213,30.0206152 122.851684,29.8968916 C122.975407,29.7731679 123.119749,29.711307 123.284714,29.711307 L123.367196,29.711307 L124.790011,29.8556505 C124.98247,29.8693976 125.133686,29.9553155 125.243663,30.1134069 C125.353639,30.2714982 125.388006,30.4467708 125.346765,30.6392298 C125.319271,30.7904476 125.26772,31.0310178 125.192111,31.3609476 C125.116502,31.6908773 125.064952,31.9177006 125.037457,32.0414243 Z M139.739879,43.052775 C139.739879,42.7915806 139.733005,42.5853776 139.719258,42.4341598 C139.719258,42.3654244 139.684891,42.3310573 139.616156,42.3310573 C139.011285,42.2348278 138.468283,42.1867137 137.987136,42.1867137 C137.176058,42.1867137 136.540266,42.3138722 136.079739,42.5681931 C135.619212,42.822514 135.388952,43.1764958 135.388952,43.6301492 C135.388952,44.5649502 136.227511,45.0323437 137.904654,45.0323437 C138.564513,45.0323437 139.035344,44.8776914 139.317159,44.5683823 C139.598974,44.2590731 139.739879,43.7538758 139.739879,43.052775 Z M148.214907,43.5476672 C148.379872,43.6851379 148.4761,43.8569738 148.503594,44.0631799 L148.503594,44.1869029 C148.503594,44.3518678 148.462354,44.5030833 148.379871,44.6405541 L147.555051,45.898405 C147.458822,46.0633699 147.317916,46.1561612 147.132331,46.1767818 C146.946745,46.1974024 146.78522,46.1458517 146.647749,46.022128 C145.369271,44.8536268 144.028951,43.9394601 142.62675,43.2796006 C142.571762,43.2521064 142.544268,43.2727267 142.544268,43.3414621 C142.558015,43.4926799 142.564888,43.6988829 142.564888,43.9600773 C142.564888,44.454972 142.492717,44.9051819 142.348373,45.3107205 C142.204029,45.7162592 141.973769,46.094298 141.657586,46.4448484 C141.341403,46.7953988 140.880883,47.0703361 140.276012,47.2696687 C139.671141,47.4690013 138.94943,47.5686661 138.110859,47.5686661 C137.327276,47.5686661 136.619312,47.5033684 135.986947,47.3727712 C135.354581,47.242174 134.784086,47.0325343 134.275445,46.7438458 C133.766803,46.4551572 133.375017,46.0564981 133.100076,45.5478564 C132.825134,45.0392147 132.687666,44.4412259 132.687666,43.7538723 C132.687666,42.6128652 133.175679,41.6780782 134.151722,40.9494833 C135.127764,40.2208884 136.536818,39.8565964 138.378925,39.8565964 C138.777591,39.8565964 139.162503,39.8703433 139.533674,39.8978374 C139.602409,39.9115845 139.629903,39.8840908 139.616156,39.8153554 C139.519926,37.3683764 139.471812,35.8905881 139.471812,35.3819464 C139.471812,34.3096747 139.458065,33.1824316 139.430571,32.0001833 C139.416824,31.2990825 139.389331,30.7217141 139.348089,30.2680607 C139.320595,30.0756017 139.368709,29.9072025 139.492433,29.7628583 C139.616157,29.618514 139.774245,29.5463429 139.966705,29.5463429 L141.636966,29.5463429 C141.829425,29.5463429 141.99095,29.618514 142.121547,29.7628583 C142.252145,29.9072025 142.310569,30.0756017 142.296822,30.2680607 C142.255581,30.7217141 142.21434,31.2990825 142.173099,32.0001833 L142.173099,33.4229983 C142.173099,33.4779865 142.207466,33.5054803 142.276201,33.5054803 C144.352009,33.450492 146.022254,33.3680108 147.286984,33.2580342 C147.479444,33.2442871 147.651279,33.3027113 147.802497,33.4333085 C147.953715,33.5639057 148.036196,33.7254314 148.049943,33.9178904 L148.091184,34.9489158 C148.091184,35.1551219 148.025887,35.3372679 147.895289,35.4953592 C147.764692,35.6534505 147.596293,35.7393685 147.390087,35.7531155 C146.084115,35.8493451 144.379504,35.9249528 142.276201,35.9799411 C142.207466,35.9799411 142.179972,36.0143083 142.193719,36.0830437 C142.23496,37.4165098 142.303695,38.8393105 142.399924,40.3514886 C142.413671,40.4064769 142.448039,40.4477175 142.503027,40.4752116 C144.661317,41.1350712 146.565258,42.1592128 148.214907,43.5476672 Z M162.030647,39.4648068 C162.030647,38.749959 161.769457,38.1519703 161.247068,37.6708227 C160.710932,37.2034222 159.989221,36.9697255 159.081914,36.9697255 L159.020053,36.9697255 C158.70387,36.9697255 158.387692,36.9834723 158.07151,37.0109665 C157.755327,37.0384606 157.432276,37.0797012 157.102346,37.1346895 C156.772416,37.1896778 156.494042,37.2343551 156.267215,37.2687228 C156.040389,37.3030905 155.758578,37.3649514 155.421774,37.4543074 C155.084971,37.5436633 154.854711,37.6055242 154.730988,37.6398919 C154.607264,37.6742596 154.387314,37.7395572 154.071131,37.8357867 C153.754949,37.9320163 153.589986,37.9801303 153.576239,37.9801303 C153.328792,38.0626127 152.882019,38.2207017 152.235906,38.454402 C152.043447,38.5231373 151.861301,38.5128272 151.689463,38.4234712 C151.517624,38.3341152 151.404213,38.1932098 151.349224,38.0007508 L150.957435,36.4335923 C150.929941,36.378604 150.916194,36.3236165 150.916194,36.2686282 C150.916194,36.1449046 150.957434,36.0280562 151.039917,35.9180796 C151.149893,35.7668618 151.301109,35.6775072 151.493568,35.650013 C152.043451,35.5675306 152.558958,35.4713025 153.040106,35.3613259 C153.136335,35.3475788 153.407836,35.2891546 153.854616,35.1860516 C154.301396,35.0829485 154.631321,35.0107775 154.8444,34.9695363 C155.05748,34.9282951 155.390841,34.8629974 155.844495,34.7736415 C156.298148,34.6842855 156.686497,34.6189879 157.009554,34.5777466 C157.33261,34.5365054 157.707212,34.4987015 158.133371,34.4643339 C158.55953,34.4299662 158.965063,34.4127826 159.349981,34.4127826 C161.040871,34.4127826 162.405248,34.8698659 163.443152,35.7840463 C164.481056,36.6982267 165,37.9595017 165,39.5679093 C165,40.9701108 164.604778,42.2210757 163.814321,43.3208416 C163.023864,44.4206075 161.944735,45.3175906 160.576901,46.0118178 C159.209067,46.706045 157.604121,47.2112423 155.762013,47.527425 C155.707025,47.5411721 155.652037,47.5480455 155.597049,47.5480455 C155.445831,47.5480455 155.294615,47.5136784 155.143398,47.444943 C154.950939,47.3487135 154.799723,47.2043714 154.689747,47.0119124 L153.906167,45.6509589 C153.809938,45.4997411 153.799628,45.3485256 153.875236,45.1973077 C153.950845,45.0460899 154.078004,44.9567353 154.256716,44.9292412 C159.439363,44.2143933 162.030647,42.3929334 162.030647,39.4648068 Z M154.153613,32.0620448 C153.947407,32.0345506 153.789318,31.9383226 153.679342,31.7733577 C153.583112,31.649634 153.534998,31.5121654 153.534998,31.3609476 L153.534998,31.2372245 L153.720583,30.1443376 C153.761824,29.9381315 153.864925,29.7800426 154.02989,29.670066 C154.153614,29.5875835 154.284209,29.5463429 154.42168,29.5463429 C154.476668,29.5463429 154.524782,29.5532164 154.566023,29.5669634 C155.665789,29.7594225 156.982052,29.9312583 158.514851,30.0824761 C160.047649,30.2336939 161.377659,30.3230486 162.504919,30.3505427 C162.697378,30.3642898 162.855467,30.4398976 162.97919,30.5773683 C163.07542,30.7010919 163.123534,30.8316872 163.123534,30.9691579 L163.123534,31.092881 L162.937949,32.2270088 C162.910455,32.4332149 162.814227,32.5981774 162.649262,32.721901 C162.498044,32.8318776 162.333082,32.8868651 162.15437,32.8868651 L162.092509,32.8868651 C158.793211,32.6394177 156.146939,32.3644804 154.153613,32.0620448 Z" id="をはじめよう" fill="#0555E0"></path>
            <path d="M62.0429688,0.95703125 C62.1523443,0.701821641 62.3255196,0.519531797 62.5625,0.41015625 C62.7083341,0.337239219 62.8541659,0.30078125 63,0.30078125 C63.1093755,0.30078125 63.2187495,0.319010234 63.328125,0.35546875 L64.5859375,0.765625 C64.8411471,0.856771289 65.023437,1.02083215 65.1328125,1.2578125 C65.242188,1.49479285 65.242188,1.73176965 65.1328125,1.96875 C64.4765592,3.4817784 63.7473998,4.94921164 62.9453125,6.37109375 C62.908854,6.44401078 62.890625,6.52604121 62.890625,6.6171875 L62.890625,25.1289063 C62.890625,25.3841159 62.7949228,25.6074209 62.6035156,25.7988281 C62.4121084,25.9902353 62.1796889,26.0859375 61.90625,26.0859375 L60.6757812,26.0859375 C60.4205716,26.0859375 60.1972666,25.9902353 60.0058594,25.7988281 C59.8144522,25.6074209 59.71875,25.3841159 59.71875,25.1289063 L59.71875,11.375 C59.71875,11.3567707 59.7096355,11.343099 59.6914062,11.3339844 C59.673177,11.3248697 59.654948,11.329427 59.6367188,11.3476563 C59.1262995,12.0039095 58.6067735,12.6145805 58.078125,13.1796875 C57.9322909,13.3437508 57.7454438,13.402995 57.5175781,13.3574219 C57.2897124,13.3118487 57.1302088,13.1888031 57.0390625,12.9882813 C56.7473944,12.3502572 56.4557306,11.7669297 56.1640625,11.2382813 C56.054687,11.0377594 56,10.8281261 56,10.609375 L56,10.4453125 C56.0364585,10.1718736 56.1549469,9.93489684 56.3554688,9.734375 C57.4674535,8.58593176 58.5201773,7.24610141 59.5136719,5.71484375 C60.5071664,4.18358609 61.350257,2.59766445 62.0429688,0.95703125 Z M77.65625,11.8398438 C77.6744793,11.7669267 77.6471358,11.7304688 77.5742188,11.7304688 L72.1054688,11.7304688 C72.0143225,11.7304688 71.986979,11.7669267 72.0234375,11.8398438 C72.7343786,13.9908962 73.7187437,15.9049395 74.9765625,17.5820312 C74.9947918,17.6184898 75.0221352,17.6321615 75.0585938,17.6230469 C75.0950523,17.6139322 75.1223957,17.6002605 75.140625,17.5820312 C76.2161512,15.9778566 77.0546845,14.0638132 77.65625,11.8398438 Z M78.4492188,8.640625 C79.2513061,8.640625 79.8802061,8.72265543 80.3359375,8.88671875 L80.5546875,8.96875 C80.8281264,9.07812555 81.0332024,9.2513009 81.1699219,9.48828125 C81.3066413,9.7252616 81.3476565,9.98046738 81.2929688,10.2539062 C80.4908814,14.1002796 79.16928,17.3541534 77.328125,20.015625 C77.2916665,20.088542 77.300781,20.1523435 77.3554688,20.2070312 C78.6862046,21.3737038 80.1718668,22.303382 81.8125,22.9960938 C82.0130218,23.08724 82.1315102,23.2421864 82.1679688,23.4609375 C82.186198,23.5156253 82.1953125,23.5611977 82.1953125,23.5976562 C82.1953125,23.7617196 82.1406255,23.9075514 82.03125,24.0351562 C81.6666648,24.4544292 81.3203141,24.9010393 80.9921875,25.375 C80.8281242,25.6119804 80.6093764,25.7669267 80.3359375,25.8398438 C80.226562,25.8763023 80.1263025,25.8945312 80.0351562,25.8945312 C79.8710929,25.8945312 79.7161466,25.8671878 79.5703125,25.8125 C77.9296793,25.0104127 76.4622461,24.0078185 75.1679688,22.8046875 C75.113281,22.7499997 75.058594,22.7499997 75.0039062,22.8046875 C73.8007752,23.9895893 72.4427159,24.9830689 70.9296875,25.7851562 C70.7838534,25.8763025 70.6289071,25.921875 70.4648438,25.921875 C70.3736975,25.921875 70.2825525,25.903646 70.1914062,25.8671875 C69.9179674,25.7942705 69.6992196,25.6484386 69.5351562,25.4296875 C69.2252589,24.9739561 68.9062516,24.5638039 68.578125,24.1992188 C68.4140617,24.0351554 68.3502602,23.8437511 68.3867188,23.625 C68.4231773,23.4062489 68.5416657,23.242188 68.7421875,23.1328125 C70.2552159,22.4218714 71.6132752,21.4921932 72.8164062,20.34375 C72.871094,20.2890622 72.871094,20.2252608 72.8164062,20.1523438 C71.595046,18.4934813 70.5286504,16.4974075 69.6171875,14.1640625 C69.6171875,14.1458332 69.608073,14.1367187 69.5898438,14.1367187 C69.5716145,14.1367187 69.5625,14.1458332 69.5625,14.1640625 C69.1614563,18.9583573 68.1315187,22.7135281 66.4726562,25.4296875 C66.3450514,25.6302093 66.1536471,25.7441405 65.8984375,25.7714844 C65.6432279,25.7988283 65.4153656,25.7304696 65.2148438,25.5664062 C64.8502586,25.2200504 64.4765644,24.9101576 64.09375,24.6367188 C63.8749989,24.4908847 63.7382815,24.2903659 63.6835938,24.0351562 C63.6653645,23.9622392 63.65625,23.8893233 63.65625,23.8164062 C63.65625,23.6341137 63.7018225,23.4700528 63.7929688,23.3242188 C64.376305,22.3398388 64.8548158,21.2552143 65.2285156,20.0703125 C65.6022154,18.8854107 65.8710929,17.6412826 66.0351562,16.3378906 C66.1992196,15.0344987 66.3085935,13.8860727 66.3632812,12.8925781 C66.417969,11.8990836 66.4453125,10.7825583 66.4453125,9.54296875 L66.4453125,2.3515625 C66.4453125,2.09635289 66.5364574,1.87304783 66.71875,1.68164062 C66.9010426,1.49023342 67.1289049,1.39453125 67.4023438,1.39453125 L80.71875,1.39453125 C80.9921889,1.39453125 81.2246084,1.49023342 81.4160156,1.68164062 C81.6074228,1.87304783 81.703125,2.09635289 81.703125,2.3515625 L81.703125,3.58203125 C81.703125,3.85547012 81.6074228,4.08788967 81.4160156,4.27929688 C81.2246084,4.47070408 80.9921889,4.56640625 80.71875,4.56640625 L69.8632812,4.56640625 C69.772135,4.56640625 69.7265625,4.60286422 69.7265625,4.67578125 L69.7265625,8.53125 C69.7265625,8.60416703 69.772135,8.640625 69.8632812,8.640625 L78.4492188,8.640625 Z M100.597656,12.1679688 C100.524739,12.1679688 100.488281,12.2135412 100.488281,12.3046875 L100.488281,13.7265625 C100.488281,13.8177088 100.524739,13.8632812 100.597656,13.8632812 L105.519531,13.8632812 C105.592448,13.8632812 105.628906,13.8177088 105.628906,13.7265625 L105.628906,12.3046875 C105.628906,12.2135412 105.592448,12.1679688 105.519531,12.1679688 L100.597656,12.1679688 Z M100.597656,8.12109375 C100.524739,8.12109375 100.488281,8.15755172 100.488281,8.23046875 L100.488281,9.625 C100.488281,9.69791703 100.524739,9.734375 100.597656,9.734375 L105.519531,9.734375 C105.592448,9.734375 105.628906,9.69791703 105.628906,9.625 L105.628906,8.23046875 C105.628906,8.15755172 105.592448,8.12109375 105.519531,8.12109375 L100.597656,8.12109375 Z M100.597656,4.01953125 C100.524739,4.01953125 100.488281,4.06510371 100.488281,4.15625 L100.488281,5.5234375 C100.488281,5.61458379 100.524739,5.66015625 100.597656,5.66015625 L105.519531,5.66015625 C105.592448,5.66015625 105.628906,5.61458379 105.628906,5.5234375 L105.628906,4.15625 C105.628906,4.06510371 105.592448,4.01953125 105.519531,4.01953125 L100.597656,4.01953125 Z M95.2929688,18.2109375 C95.1106762,18.0286449 95.0240885,17.8098971 95.0332031,17.5546875 C95.0423178,17.2994779 95.1471344,17.0898446 95.3476562,16.9257812 L96.3867188,16.1054688 C96.5325528,15.9960932 96.7011709,15.9414062 96.8925781,15.9414062 C97.0839853,15.9414062 97.2526034,16.0052077 97.3984375,16.1328125 C97.3984375,16.1510418 97.407552,16.155599 97.4257812,16.1464844 C97.4440105,16.1373697 97.453125,16.123698 97.453125,16.1054688 L97.453125,2.3515625 C97.453125,2.09635289 97.5488272,1.87304783 97.7402344,1.68164062 C97.9316416,1.49023342 98.1640611,1.39453125 98.4375,1.39453125 L107.84375,1.39453125 C108.117189,1.39453125 108.349608,1.49023342 108.541016,1.68164062 C108.732423,1.87304783 108.828125,2.09635289 108.828125,2.3515625 L108.828125,15.4765625 C108.828125,15.7500014 108.732423,15.9824209 108.541016,16.1738281 C108.349608,16.3652353 108.117189,16.4609375 107.84375,16.4609375 L97.8632812,16.4609375 C97.845052,16.4609375 97.8313803,16.470052 97.8222656,16.4882812 C97.813151,16.5065105 97.8177082,16.5247395 97.8359375,16.5429688 C98.7109419,17.3450561 99.4492157,18.065101 100.050781,18.703125 C100.233074,18.9036468 100.315104,19.1360664 100.296875,19.4003906 C100.278646,19.6647149 100.169272,19.8789054 99.96875,20.0429688 L99.0390625,20.8085938 C98.8385407,20.9908863 98.6061211,21.0683595 98.3417969,21.0410156 C98.0774726,21.0136717 97.8541676,20.8997406 97.671875,20.6992188 C97.0156217,19.9335899 96.2226609,19.1041711 95.2929688,18.2109375 Z M90.234375,16.7890625 C89.9609361,16.7890625 89.7285166,16.6933603 89.5371094,16.5019531 C89.3457022,16.3105459 89.25,16.0872409 89.25,15.8320312 L89.25,11.4023438 C89.25,11.3841145 89.2408855,11.3704428 89.2226562,11.3613281 C89.204427,11.3522135 89.1953125,11.3567707 89.1953125,11.375 C88.4296837,12.6875066 87.6276084,13.7812456 86.7890625,14.65625 C86.6067699,14.8385426 86.3880221,14.920573 86.1328125,14.9023438 C85.8776029,14.8841145 85.6679696,14.7747406 85.5039062,14.5742188 C85.2486966,14.2643214 84.9752619,13.9726576 84.6835938,13.6992188 C84.5195304,13.5169262 84.4375,13.3072929 84.4375,13.0703125 C84.4375,12.8151029 84.5286449,12.5963551 84.7109375,12.4140625 C86.3333414,10.9557219 87.6549428,9.12370895 88.6757812,6.91796875 C88.7122398,6.84505172 88.6848963,6.80859375 88.59375,6.80859375 L85.640625,6.80859375 C85.3671861,6.80859375 85.1347666,6.71289158 84.9433594,6.52148438 C84.7519522,6.33007717 84.65625,6.09765762 84.65625,5.82421875 L84.65625,4.94921875 C84.65625,4.67577988 84.7519522,4.44336033 84.9433594,4.25195312 C85.1347666,4.06054592 85.3671861,3.96484375 85.640625,3.96484375 L89.140625,3.96484375 C89.213542,3.96484375 89.25,3.92838578 89.25,3.85546875 L89.25,0.984375 C89.25,0.710936133 89.3457022,0.483073828 89.5371094,0.30078125 C89.7285166,0.118488672 89.9609361,0.02734375 90.234375,0.02734375 L91.4375,0.02734375 C91.7109389,0.02734375 91.9433584,0.118488672 92.1347656,0.30078125 C92.3261728,0.483073828 92.421875,0.710936133 92.421875,0.984375 L92.421875,3.85546875 C92.421875,3.92838578 92.458333,3.96484375 92.53125,3.96484375 L95.4023438,3.96484375 C95.6575534,3.96484375 95.8808584,4.06054592 96.0722656,4.25195312 C96.2636728,4.44336033 96.359375,4.67577988 96.359375,4.94921875 L96.359375,5.82421875 C96.359375,6.09765762 96.2636728,6.33007717 96.0722656,6.52148438 C95.8808584,6.71289158 95.6575534,6.80859375 95.4023438,6.80859375 L92.53125,6.80859375 C92.458333,6.80859375 92.421875,6.84505172 92.421875,6.91796875 L92.421875,7.7109375 C92.421875,7.78385453 92.458333,7.84765598 92.53125,7.90234375 C93.4062544,8.41276297 94.5911384,9.22395277 96.0859375,10.3359375 C96.3046886,10.4817716 96.4368487,10.6914049 96.4824219,10.9648438 C96.527995,11.2382826 96.4687508,11.4934884 96.3046875,11.7304688 L95.6484375,12.7695312 C95.5026034,12.9700531 95.3066419,13.079427 95.0605469,13.0976562 C94.8144519,13.1158855 94.6093758,13.0429696 94.4453125,12.8789062 C93.8619762,12.29557 93.2148473,11.6757845 92.5039062,11.0195312 C92.485677,11.001302 92.467448,10.9967447 92.4492188,11.0058594 C92.4309895,11.014974 92.421875,11.0377602 92.421875,11.0742188 L92.421875,15.8320312 C92.421875,16.0872409 92.3261728,16.3105459 92.1347656,16.5019531 C91.9433584,16.6933603 91.7109389,16.7890625 91.4375,16.7890625 L90.234375,16.7890625 Z M87.6640625,23.7617188 C87.554687,23.9986991 87.3678399,24.1582027 87.1035156,24.2402344 C86.8391914,24.322266 86.5885429,24.2994798 86.3515625,24.171875 L85.0390625,23.515625 C84.8020821,23.4062495 84.6471358,23.2239596 84.5742188,22.96875 C84.5559895,22.8776037 84.546875,22.7955733 84.546875,22.7226562 C84.546875,22.5585929 84.583333,22.4036466 84.65625,22.2578125 C85.3489618,21.0546815 85.9140603,19.7239656 86.3515625,18.265625 C86.4244795,18.0104154 86.5748687,17.8235683 86.8027344,17.7050781 C87.0306001,17.5865879 87.2630196,17.5820307 87.5,17.6914062 L88.6484375,18.1289062 C88.9036471,18.2382818 89.0950514,18.4160144 89.2226562,18.6621094 C89.3502611,18.9082044 89.3776045,19.1679674 89.3046875,19.4414062 C88.7578098,21.2096443 88.2109402,22.649734 87.6640625,23.7617188 Z M95.6757812,22.640625 L100.132812,22.640625 C100.734378,22.640625 101.135416,22.5039076 101.335938,22.2304688 C101.536459,21.9570299 101.673177,21.3463589 101.746094,20.3984375 C101.764323,20.1796864 101.873697,20.0201828 102.074219,19.9199219 C102.274741,19.819661 102.475259,19.8151037 102.675781,19.90625 C103.040366,20.0885426 103.441404,20.2434889 103.878906,20.3710938 C104.152345,20.4440108 104.366536,20.5943999 104.521484,20.8222656 C104.676433,21.0501313 104.735677,21.2916654 104.699219,21.546875 C104.462238,23.1328204 104.042972,24.2037733 103.441406,24.7597656 C102.839841,25.315758 101.828132,25.59375 100.40625,25.59375 L95.3476562,25.59375 C93.4700427,25.59375 92.2076855,25.3203152 91.5605469,24.7734375 C90.9134082,24.2265598 90.5898438,23.2148511 90.5898438,21.7382812 L90.5898438,18.8945312 C90.5898438,18.6210924 90.6855459,18.3886728 90.8769531,18.1972656 C91.0683603,18.0058584 91.3007799,17.9101562 91.5742188,17.9101562 L92.9140625,17.9101562 C93.1692721,17.9101562 93.3925772,18.0058584 93.5839844,18.1972656 C93.7753916,18.3886728 93.8710938,18.6210924 93.8710938,18.8945312 L93.8710938,21.6835938 C93.8710938,22.1028667 93.9804677,22.367187 94.1992188,22.4765625 C94.4179698,22.585938 94.9101524,22.640625 95.6757812,22.640625 Z M104.535156,19.140625 C104.44401,18.9947909 104.398438,18.8489591 104.398438,18.703125 C104.398438,18.6119787 104.416666,18.5208338 104.453125,18.4296875 C104.526042,18.1744779 104.680988,17.992188 104.917969,17.8828125 L106.066406,17.3632812 C106.21224,17.2903642 106.367187,17.2539062 106.53125,17.2539062 C106.640626,17.2539062 106.749999,17.2721352 106.859375,17.3085938 C107.114585,17.3815108 107.324218,17.5364571 107.488281,17.7734375 C108.764329,19.7421973 109.593748,21.0455697 109.976562,21.6835938 C110.067709,21.8294278 110.113281,21.9843742 110.113281,22.1484375 C110.113281,22.2213545 110.095052,22.3124995 110.058594,22.421875 C109.985677,22.6588554 109.83073,22.8411452 109.59375,22.96875 L108.199219,23.6796875 C108.071614,23.7526045 107.934897,23.7890625 107.789062,23.7890625 C107.679687,23.7890625 107.579428,23.7708335 107.488281,23.734375 C107.233072,23.661458 107.041667,23.5065116 106.914062,23.2695312 C106.585936,22.6497365 105.792975,21.2734482 104.535156,19.140625 Z M127.695312,9.515625 C127.695312,9.44270797 127.658855,9.40625 127.585938,9.40625 L124.605469,9.40625 C124.514322,9.40625 124.46875,9.44270797 124.46875,9.515625 L124.46875,10.8007812 C124.46875,10.8736983 124.514322,10.9101562 124.605469,10.9101562 L127.585938,10.9101562 C127.658855,10.9101562 127.695312,10.8736983 127.695312,10.8007812 L127.695312,9.515625 Z M133.847656,10.9101562 C133.920573,10.9101562 133.957031,10.8736983 133.957031,10.8007812 L133.957031,9.515625 C133.957031,9.44270797 133.920573,9.40625 133.847656,9.40625 L130.785156,9.40625 C130.712239,9.40625 130.675781,9.44270797 130.675781,9.515625 L130.675781,10.8007812 C130.675781,10.8736983 130.712239,10.9101562 130.785156,10.9101562 L133.847656,10.9101562 Z M130.675781,14.6835938 C130.675781,14.7565108 130.712239,14.7929688 130.785156,14.7929688 L133.847656,14.7929688 C133.920573,14.7929688 133.957031,14.7565108 133.957031,14.6835938 L133.957031,13.3710938 C133.957031,13.2799475 133.920573,13.234375 133.847656,13.234375 L130.785156,13.234375 C130.712239,13.234375 130.675781,13.2799475 130.675781,13.3710938 L130.675781,14.6835938 Z M124.46875,14.6835938 C124.46875,14.7565108 124.514322,14.7929688 124.605469,14.7929688 L127.585938,14.7929688 C127.658855,14.7929688 127.695312,14.7565108 127.695312,14.6835938 L127.695312,13.3710938 C127.695312,13.2799475 127.658855,13.234375 127.585938,13.234375 L124.605469,13.234375 C124.514322,13.234375 124.46875,13.2799475 124.46875,13.3710938 L124.46875,14.6835938 Z M124.605469,17.1992188 C124.514322,17.1992188 124.46875,17.2447912 124.46875,17.3359375 L124.46875,20.453125 C124.46875,20.7083346 124.377605,20.9316397 124.195312,21.1230469 C124.01302,21.3144541 123.785158,21.4101563 123.511719,21.4101563 L122.308594,21.4101563 C122.035155,21.4101563 121.807293,21.3144541 121.625,21.1230469 C121.442707,20.9316397 121.351562,20.7083346 121.351562,20.453125 L121.351562,7.95703125 C121.351562,7.68359238 121.442707,7.45573008 121.625,7.2734375 C121.807293,7.09114492 122.035155,7 122.308594,7 L127.503906,7 L127.517578,6.97265625 C127.526693,6.95442699 127.522136,6.9453125 127.503906,6.9453125 C126.66536,6.54426883 125.753911,6.14323117 124.769531,5.7421875 C124.569009,5.66927047 124.450521,5.52343859 124.414062,5.3046875 C124.377604,5.08593641 124.441405,4.91276105 124.605469,4.78515625 L125.261719,4.2109375 C125.589845,3.95572789 125.936196,3.828125 126.300781,3.828125 C126.501303,3.828125 126.710936,3.86458297 126.929688,3.9375 C127.786463,4.26562664 128.542965,4.57551937 129.199219,4.8671875 C129.290365,4.90364602 129.363281,4.90364602 129.417969,4.8671875 C129.964846,4.53906086 130.648433,4.08333625 131.46875,3.5 C131.486979,3.5 131.491537,3.49088551 131.482422,3.47265625 C131.473307,3.45442699 131.459636,3.4453125 131.441406,3.4453125 L122.554688,3.4453125 C122.299478,3.4453125 122.076173,3.34961033 121.884766,3.15820312 C121.693358,2.96679592 121.597656,2.73437637 121.597656,2.4609375 L121.597656,1.88671875 C121.597656,1.61327988 121.693358,1.38086033 121.884766,1.18945312 C122.076173,0.998045918 122.299478,0.90234375 122.554688,0.90234375 L134.53125,0.90234375 C134.640626,0.865885234 134.740885,0.84765625 134.832031,0.84765625 C135.087241,0.84765625 135.324218,0.938801172 135.542969,1.12109375 L136.308594,1.72265625 C136.509116,1.88671957 136.613932,2.09635289 136.623047,2.3515625 C136.632162,2.60677211 136.545574,2.82551992 136.363281,3.0078125 C135.087233,4.11979723 133.70183,5.14062035 132.207031,6.0703125 C132.188802,6.0703125 132.179688,6.08398424 132.179688,6.11132813 C132.179688,6.13867201 132.188802,6.16145824 132.207031,6.1796875 C132.97266,6.56250191 133.455728,6.8085932 133.65625,6.91796875 C133.729167,6.97265652 133.811197,7 133.902344,7 L136.199219,7 C136.454428,7 136.677733,7.09114492 136.869141,7.2734375 C137.060548,7.45573008 137.15625,7.68359238 137.15625,7.95703125 L137.15625,18.5390625 C137.15625,19.2317743 137.07422,19.7649721 136.910156,20.1386719 C136.746093,20.5123717 136.445315,20.8085927 136.007812,21.0273438 C135.460935,21.3190119 134.522142,21.4739582 133.191406,21.4921875 C132.917967,21.4921875 132.676433,21.4055998 132.466797,21.2324219 C132.25716,21.0592439 132.115886,20.8268244 132.042969,20.5351563 C131.970052,20.2799466 131.888021,20.0338554 131.796875,19.796875 C131.723958,19.5781239 131.751301,19.3730478 131.878906,19.1816406 C132.006511,18.9902334 132.179686,18.9036457 132.398438,18.921875 L133.546875,18.921875 C133.710938,18.9036457 133.820312,18.8626305 133.875,18.7988281 C133.929688,18.7350257 133.957031,18.6393236 133.957031,18.5117188 L133.957031,17.3359375 C133.957031,17.2447912 133.920573,17.1992188 133.847656,17.1992188 L130.785156,17.1992188 C130.712239,17.1992188 130.675781,17.2447912 130.675781,17.3359375 L130.675781,20.3164063 C130.675781,20.5898451 130.580079,20.8222647 130.388672,21.0136719 C130.197265,21.2050791 129.964845,21.3007813 129.691406,21.3007813 L128.679688,21.3007813 C128.406249,21.3007813 128.173829,21.2050791 127.982422,21.0136719 C127.791015,20.8222647 127.695312,20.5898451 127.695312,20.3164063 L127.695312,17.3359375 C127.695312,17.2447912 127.658855,17.1992188 127.585938,17.1992188 L124.605469,17.1992188 Z M119.164062,4.15625 C119.364584,4.35677184 119.455729,4.59374863 119.4375,4.8671875 C119.419271,5.14062637 119.309897,5.36848867 119.109375,5.55078125 L118.015625,6.58984375 C117.833332,6.77213633 117.614585,6.84960951 117.359375,6.82226563 C117.104165,6.79492174 116.894532,6.68099059 116.730469,6.48046875 C115.910152,5.49608883 114.798184,4.43880773 113.394531,3.30859375 C113.194009,3.14453043 113.089193,2.93489711 113.080078,2.6796875 C113.070963,2.42447789 113.157551,2.21484457 113.339844,2.05078125 L114.214844,1.23046875 C114.433595,1.04817617 114.679686,0.947916758 114.953125,0.9296875 L115.035156,0.9296875 C115.290366,0.9296875 115.518228,1.00260344 115.71875,1.1484375 C117.140632,2.1875052 118.289058,3.19009934 119.164062,4.15625 Z M117.988281,10.8554688 C118.26172,10.8554688 118.49414,10.9511709 118.685547,11.1425781 C118.876954,11.3339853 118.972656,11.5572904 118.972656,11.8125 L118.972656,19.6601562 C118.972656,19.7513025 118.990885,19.833333 119.027344,19.90625 C119.555992,20.7812544 120.298823,21.4283833 121.255859,21.8476562 C122.212895,22.2669292 123.411451,22.503906 124.851562,22.5585938 C125.835942,22.5950523 127.066399,22.6132812 128.542969,22.6132812 L130.949219,22.6132812 C133.537773,22.5768227 135.779938,22.4947923 137.675781,22.3671875 C137.894532,22.3671875 138.067708,22.4492179 138.195312,22.6132812 C138.26823,22.7226568 138.304688,22.8411452 138.304688,22.96875 C138.304688,23.041667 138.295573,23.1236975 138.277344,23.2148438 C138.095051,23.6705752 137.940105,24.1354143 137.8125,24.609375 C137.739583,24.8828139 137.593751,25.1152334 137.375,25.3066406 C137.156249,25.4980478 136.910158,25.59375 136.636719,25.59375 C134.230457,25.6848963 131.960948,25.7304688 129.828125,25.7304688 C128.059887,25.7304688 126.391935,25.7031253 124.824219,25.6484375 C123.110669,25.5755205 121.688808,25.3066429 120.558594,24.8417969 C119.42838,24.3769508 118.453129,23.6432342 117.632812,22.640625 C117.578125,22.567708 117.523438,22.5585935 117.46875,22.6132812 C116.210931,23.6705782 115.108078,24.5637984 114.160156,25.2929688 C113.959634,25.4570321 113.740887,25.5071618 113.503906,25.4433594 C113.266926,25.379557 113.093751,25.2382823 112.984375,25.0195312 L112.246094,23.4335938 C112.191406,23.2877597 112.164062,23.1419278 112.164062,22.9960938 C112.164062,22.8867182 112.182291,22.7773443 112.21875,22.6679688 C112.291667,22.4127591 112.446613,22.2122403 112.683594,22.0664062 C113.704432,21.4648407 114.697912,20.8085973 115.664062,20.0976562 C115.73698,20.0429685 115.773438,19.9700525 115.773438,19.8789062 L115.773438,14.0273438 C115.773438,13.9544267 115.727865,13.9179688 115.636719,13.9179688 L113.175781,13.9179688 C112.920572,13.9179688 112.697267,13.8222666 112.505859,13.6308594 C112.314452,13.4394522 112.21875,13.2070326 112.21875,12.9335938 L112.21875,11.8125 C112.21875,11.5572904 112.314452,11.3339853 112.505859,11.1425781 C112.697267,10.9511709 112.920572,10.8554688 113.175781,10.8554688 L117.988281,10.8554688 Z M161.792969,9.2421875 L156.652344,9.2421875 C154.811189,9.2421875 153.576175,8.98698172 152.947266,8.4765625 C152.318356,7.96614328 152.003906,6.99089262 152.003906,5.55078125 L152.003906,1.1484375 C152.003906,0.893227891 152.099608,0.669922832 152.291016,0.478515625 C152.482423,0.287108418 152.705728,0.19140625 152.960938,0.19140625 L154.246094,0.19140625 C154.519533,0.19140625 154.751952,0.287108418 154.943359,0.478515625 C155.134767,0.669922832 155.230469,0.893227891 155.230469,1.1484375 L155.230469,2.37890625 C155.230469,2.47005254 155.266927,2.50651051 155.339844,2.48828125 C157.654959,2.05077906 159.550774,1.58593996 161.027344,1.09375 C161.246095,1.02083297 161.446614,0.984375 161.628906,0.984375 C162.011721,0.984375 162.358071,1.12109238 162.667969,1.39453125 L163.625,2.26953125 C163.789063,2.41536531 163.848308,2.59765516 163.802734,2.81640625 C163.757161,3.03515734 163.634116,3.17187473 163.433594,3.2265625 C161.136707,3.95573281 158.438818,4.52994582 155.339844,4.94921875 C155.266927,4.96744801 155.230469,5.01302047 155.230469,5.0859375 L155.230469,5.55078125 C155.230469,5.97005418 155.335285,6.2389317 155.544922,6.35742188 C155.754558,6.47591205 156.233069,6.53515625 156.980469,6.53515625 L161.492188,6.53515625 C161.92969,6.53515625 162.24414,6.4713548 162.435547,6.34375 C162.626954,6.2161452 162.759114,5.95182492 162.832031,5.55078125 C162.886719,5.33203016 163.009765,5.1679693 163.201172,5.05859375 C163.392579,4.9492182 163.597655,4.94010371 163.816406,5.03125 C164.126304,5.1588548 164.454425,5.2773432 164.800781,5.38671875 C165.07422,5.45963578 165.292968,5.60546766 165.457031,5.82421875 C165.566407,5.98828207 165.621094,6.17057191 165.621094,6.37109375 L165.621094,6.5625 C165.402343,7.58333844 165.014977,8.28515434 164.458984,8.66796875 C163.902992,9.05078316 163.014329,9.2421875 161.792969,9.2421875 Z M146.207031,9.37890625 C145.933592,9.37890625 145.701173,9.28320408 145.509766,9.09179688 C145.318358,8.90038967 145.222656,8.66797012 145.222656,8.39453125 L145.222656,6.0703125 C145.222656,5.99739547 145.186198,5.97916648 145.113281,6.015625 C144.475257,6.47135645 143.79167,6.90885207 143.0625,7.328125 C142.80729,7.47395906 142.54297,7.51953152 142.269531,7.46484375 C141.996092,7.41015598 141.759116,7.28255309 141.558594,7.08203125 C141.212238,6.68098758 140.884116,6.33463687 140.574219,6.04296875 C140.446614,5.91536395 140.382812,5.76953207 140.382812,5.60546875 C140.382812,5.33202988 140.501301,5.14062555 140.738281,5.03125 C143.399753,3.7369727 145.532544,2.22396699 147.136719,0.4921875 C147.446616,0.164060859 147.783852,0 148.148438,0 C148.33073,0 148.51302,0.0364579687 148.695312,0.109375 L149.898438,0.57421875 C150.117189,0.665365039 150.258463,0.824868652 150.322266,1.05273438 C150.386068,1.2806001 150.335938,1.48567617 150.171875,1.66796875 C149.697914,2.21484648 149.14193,2.779945 148.503906,3.36328125 C148.449218,3.41796902 148.421875,3.48177047 148.421875,3.5546875 L148.421875,8.39453125 C148.421875,8.66797012 148.326173,8.90038967 148.134766,9.09179688 C147.943358,9.28320408 147.710939,9.37890625 147.4375,9.37890625 L146.207031,9.37890625 Z M147.410156,18.2109375 C147.337239,18.2109375 147.300781,18.25651 147.300781,18.3476562 L147.300781,19.3320312 C147.300781,19.4049483 147.337239,19.4414062 147.410156,19.4414062 L159.304688,19.4414062 C159.377605,19.4414062 159.414062,19.4049483 159.414062,19.3320312 L159.414062,18.3476562 C159.414062,18.25651 159.377605,18.2109375 159.304688,18.2109375 L147.410156,18.2109375 Z M147.410156,15.1484375 C147.337239,15.1484375 147.300781,15.1848955 147.300781,15.2578125 L147.300781,16.2148438 C147.300781,16.30599 147.337239,16.3515625 147.410156,16.3515625 L159.304688,16.3515625 C159.377605,16.3515625 159.414062,16.30599 159.414062,16.2148438 L159.414062,15.2578125 C159.414062,15.1848955 159.377605,15.1484375 159.304688,15.1484375 L147.410156,15.1484375 Z M147.410156,12.0585938 C147.337239,12.0585938 147.300781,12.1041662 147.300781,12.1953125 L147.300781,13.1523438 C147.300781,13.2252608 147.337239,13.2617188 147.410156,13.2617188 L159.304688,13.2617188 C159.377605,13.2617188 159.414062,13.2252608 159.414062,13.1523438 L159.414062,12.1953125 C159.414062,12.1041662 159.377605,12.0585938 159.304688,12.0585938 L147.410156,12.0585938 Z M162.804688,20.4804688 C162.804688,20.7356784 162.708985,20.9589834 162.517578,21.1503906 C162.326171,21.3417978 162.102866,21.4375 161.847656,21.4375 L158.101562,21.4375 C158.083333,21.4375 158.074219,21.4420572 158.074219,21.4511719 L158.074219,21.4921875 C160.535169,22.3489626 162.868479,23.2877553 165.074219,24.3085938 C165.238282,24.3815108 165.320312,24.4999992 165.320312,24.6640625 C165.320312,24.8645843 165.229168,25.0013017 165.046875,25.0742188 L162.996094,25.8398438 C162.740884,25.9492193 162.485678,26.0039062 162.230469,26.0039062 C161.902342,26.0039062 161.565106,25.9127613 161.21875,25.7304688 C159.651034,24.8919229 157.809906,24.0625041 155.695312,23.2421875 C155.531249,23.1692705 155.440104,23.0371103 155.421875,22.8457031 C155.403646,22.6542959 155.476562,22.5130213 155.640625,22.421875 L157.226562,21.4921875 L157.226562,21.4648438 C157.226562,21.4466145 157.217448,21.4375 157.199219,21.4375 L149.269531,21.4375 C149.251302,21.4375 149.242188,21.4466145 149.242188,21.4648438 C149.242188,21.483073 149.251302,21.4921875 149.269531,21.4921875 L150.800781,22.1757812 C151.001303,22.2486983 151.10612,22.3899729 151.115234,22.5996094 C151.124349,22.8092458 151.037761,22.959635 150.855469,23.0507812 C148.941397,24.1445367 146.617201,25.1106729 143.882812,25.9492188 C143.718749,26.0039065 143.554688,26.03125 143.390625,26.03125 C142.989581,26.03125 142.625002,25.8580746 142.296875,25.5117188 C141.914061,25.1289043 141.549481,24.7734391 141.203125,24.4453125 C141.111979,24.335937 141.066406,24.2174486 141.066406,24.0898438 L141.066406,23.953125 C141.121094,23.7526032 141.248697,23.6341148 141.449219,23.5976562 C144.147149,23.0325493 146.361971,22.3307334 148.09375,21.4921875 L148.09375,21.4648438 C148.09375,21.4466145 148.084636,21.4375 148.066406,21.4375 L145.058594,21.4375 C144.785155,21.4375 144.552735,21.3417978 144.361328,21.1503906 C144.169921,20.9589834 144.074219,20.7356784 144.074219,20.4804688 L144.074219,11.046875 C144.074219,10.7734361 144.169921,10.5410166 144.361328,10.3496094 C144.552735,10.1582022 144.785155,10.0625 145.058594,10.0625 L161.847656,10.0625 C162.102866,10.0625 162.326171,10.1582022 162.517578,10.3496094 C162.708985,10.5410166 162.804688,10.7734361 162.804688,11.046875 L162.804688,20.4804688 Z" id="仮想通貨" fill="#0555E0"></path>
            <g id="Group">
                <path d="M24,39 C15.7157288,39 9,32.2842712 9,24 C9,15.7157288 15.7157288,9 24,9 C32.2842712,9 39,15.7157288 39,24 C39,32.2842712 32.2842712,39 24,39 Z M21,15 L21,33 L27,33 L27,15 L21,15 Z" id="Combined-Shape" fill="#0555E0"></path>
                <use id="Oval" stroke="#0555E0" mask="url(#mask-2)" stroke-width="12" xlink:href="#path-1"></use>
            </g>
        </g>
    </g>
</svg>