<?xml version="1.0" encoding="UTF-8"?>
<svg width="728px" height="200px" viewBox="0 0 728 200" version="1.1" xmlns="http://www.w3.org/2000/svg" xmlns:xlink="http://www.w3.org/1999/xlink" style="background: #FFFFFF;">
    <!-- Generator: Sketch 42 (36781) - http://www.bohemiancoding.com/sketch -->
    <title>segwit</title>
    <desc>Created with Sketch.</desc>
    <defs></defs>
    <g id="Page-1" stroke="none" stroke-width="1" fill="none" fill-rule="evenodd">
        <g id="segwit" fill-rule="nonzero">
            <g transform="translate(114.000000, 37.000000)" id="Layer_1">
                <g transform="translate(0.000000, -1.000000)">
                    <g id="Group">
                        <path d="M162.928082,28.6815068 L198.886986,62.7568493 C199.400685,63.2705479 199.400685,63.4417808 198.886986,63.9554795 L163.613014,97.3458904 L164.89726,97.3458904 L499.486301,97.3458904 L499.486301,28.7671233 L162.928082,28.6815068 Z M238.955479,78.5958904 C232.363014,81.4212329 225.856164,81.0787671 219.863014,76.7979452 C217.294521,75 216.267123,72.260274 216.181507,69.1780822 C216.181507,68.5787671 216.35274,68.4075342 216.952055,68.4075342 L220.291096,68.4075342 L223.630137,68.4075342 C224.058219,68.4075342 224.315068,68.4931507 224.315068,69.0068493 C224.486301,71.7465753 225.684932,73.1164384 228.339041,73.7157534 C229.965753,74.0582192 231.592466,74.1438356 233.219178,73.630137 C234.589041,73.2876712 235.530822,72.4315068 235.787671,70.9760274 C236.044521,69.4349315 235.702055,67.9794521 234.160959,67.2089041 C232.534247,66.3527397 230.821918,65.6678082 229.023973,64.9828767 C226.19863,63.9554795 223.544521,62.8424658 220.976027,61.3013699 C216.181507,58.390411 215.753425,50.7705479 220.034247,47.260274 C222.688356,45.0342466 225.770548,44.0924658 229.195205,43.9212329 C232.106164,43.75 234.931507,44.0068493 237.671233,45.2910959 C240.667808,46.7465753 242.893836,48.8013699 243.664384,52.140411 C243.835616,52.8253425 243.835616,53.510274 243.921233,54.2808219 C244.006849,54.7089041 243.835616,54.880137 243.321918,54.880137 L236.386986,54.880137 C236.215753,54.880137 235.873288,54.6232877 235.873288,54.4520548 C235.10274,51.2842466 233.047945,49.9143836 229.708904,50.3424658 C228.424658,50.5136986 227.311644,50.8561644 226.369863,51.7979452 C224.828767,53.4246575 225,55.6506849 226.883562,56.7636986 C228.681507,57.7910959 230.650685,58.5616438 232.619863,59.2465753 C235.273973,60.1883562 237.756849,61.2157534 240.15411,62.6712329 C245.462329,66.010274 246.061644,75.5993151 238.955479,78.5958904 Z M287.842466,45.5479452 C287.756849,47.0034247 287.756849,48.5445205 287.842466,50 C287.842466,50.5993151 287.671233,50.7705479 287.071918,50.7705479 L272.517123,50.7705479 C271.746575,50.7705479 271.489726,51.0273973 271.575342,51.7979452 C271.660959,53.6815068 271.660959,55.5650685 271.575342,57.3630137 C271.575342,58.1335616 271.746575,58.4760274 272.60274,58.4760274 C276.626712,58.390411 280.565068,58.4760274 284.589041,58.4760274 C285.188356,58.4760274 285.445205,58.6472603 285.359589,59.2465753 C285.273973,60.7876712 285.273973,62.4143836 285.359589,63.9554795 C285.359589,64.640411 285.188356,64.7260274 284.503425,64.7260274 L272.34589,64.7260274 C271.746575,64.7260274 271.489726,64.8116438 271.489726,65.5821918 C271.575342,67.9794521 271.489726,70.3767123 271.489726,72.7739726 C271.489726,73.3732877 271.660959,73.5445205 272.260274,73.5445205 L286.815068,73.5445205 C287.585616,73.5445205 287.756849,73.7157534 287.756849,74.4863014 C287.671233,75.9417808 287.671233,77.4828767 287.756849,78.9383562 C287.756849,79.6232877 287.585616,79.880137 286.900685,79.880137 L265.924658,79.880137 C265.068493,79.880137 263.869863,80.1369863 263.356164,79.7089041 C262.928082,79.2808219 263.184932,78.0821918 263.184932,77.2260274 L263.184932,62.3287671 L263.184932,45.6335616 C263.184932,44.8630137 263.441781,44.6917808 264.212329,44.6917808 L286.900685,44.6917808 C287.671233,44.4349315 287.842466,44.6917808 287.842466,45.5479452 Z M333.390411,75.8561644 C330.907534,78.0821918 328.082192,79.5376712 324.743151,80.0513699 C321.660959,80.5650685 318.664384,80.6506849 315.667808,79.7945205 C310.017123,78.0821918 306.506849,74.2294521 305.907534,68.3219178 C305.479452,64.0410959 305.565068,59.6746575 305.993151,55.4794521 C306.763699,48.8013699 312.585616,44.0924658 319.349315,44.0924658 C321.14726,44.0924658 323.030822,44.1780822 324.828767,44.6061644 C329.794521,45.6335616 333.047945,49.1438356 333.818493,54.1952055 C334.075342,55.9931507 334.075342,55.9931507 332.277397,55.9931507 L326.969178,55.9931507 C326.455479,55.9931507 326.113014,55.9075342 326.113014,55.3082192 C326.113014,55.1369863 326.027397,54.9657534 326.027397,54.7945205 C325.428082,52.5684932 324.315068,50.9417808 321.917808,50.5136986 C319.263699,50 316.952055,50.6849315 315.410959,52.9965753 C314.383562,54.5376712 313.955479,56.1643836 313.955479,57.9623288 L313.955479,66.3527397 C313.955479,68.0650685 314.297945,69.6917808 315.239726,71.2328767 C316.35274,73.1164384 318.065068,73.9726027 320.291096,74.0582192 C322.003425,74.0582192 323.715753,73.9726027 325.342466,73.2020548 C325.856164,72.9452055 326.027397,72.6883562 326.027397,72.0890411 C325.941781,70.7191781 326.027397,69.2636986 326.027397,67.8082192 C326.027397,67.2945205 325.856164,67.1232877 325.342466,67.1232877 L321.061644,67.1232877 C320.547945,67.1232877 320.376712,67.0376712 320.376712,66.4383562 L320.376712,62.2431507 C320.376712,61.7294521 320.547945,61.5582192 321.061644,61.5582192 L327.226027,61.5582192 L333.390411,61.5582192 C333.989726,61.5582192 334.160959,61.7294521 334.160959,62.3287671 L334.160959,74.3150685 C334.160959,75.0856164 333.818493,75.4280822 333.390411,75.8561644 Z M493.407534,92.2945205 L351.969178,92.2945205 C351.113014,92.2945205 350.856164,92.1232877 350.856164,91.2671233 L350.856164,34.6746575 C350.856164,33.8184932 351.113014,33.6472603 351.969178,33.6472603 L422.688356,33.6472603 L493.321918,33.6472603 C494.520548,33.6472603 494.349315,33.4760274 494.349315,34.760274 L494.349315,91.2671233 L493.407534,92.2945205 Z" id="Shape" fill="#000000"></path>
                        <path d="M181.164384,62.5856164 L118.75,0.0856164384 L118.578767,0.0856164384 L91.609589,27.140411 C91.609589,27.140411 90.9246575,27.6541096 90.4109589,27.140411 L63.6130137,0.0856164384 L63.4417808,0.0856164384 C63.2705479,0.256849315 62.9280822,0.684931507 62.9280822,0.684931507 C62.9280822,0.684931507 21.5753425,41.9520548 0.941780822,62.6712329 C0.428082192,63.1849315 0.342465753,63.4417808 0.941780822,64.0410959 C21.5753425,84.6746575 42.2089041,105.308219 62.8424658,125.941781 C63.4417808,126.541096 63.6986301,126.455479 64.2123288,125.941781 C72.859589,117.294521 81.5068493,108.64726 90.1541096,99.9143836 C91.0958904,98.9726027 91.0958904,98.9726027 91.9520548,99.9143836 C100.599315,108.561644 109.332192,117.294521 117.979452,125.941781 C118.493151,126.455479 118.75,126.541096 119.263699,125.941781 C139.89726,105.308219 181.164384,64.0410959 181.164384,64.0410959 C181.164384,64.0410959 181.763699,63.1849315 181.164384,62.5856164 Z M167.294521,63.869863 C151.284247,79.880137 135.273973,95.890411 119.263699,111.900685 C118.75,112.414384 118.493151,112.328767 118.065068,111.900685 C102.054795,95.890411 86.0445205,79.880137 70.0342466,63.9554795 C69.5205479,63.4417808 69.6061644,63.1849315 70.0342466,62.6712329 C73.630137,59.2465753 77.0547945,55.7363014 80.5650685,52.2260274 C80.9931507,51.7979452 80.9931507,51.6267123 80.5650685,51.1986301 C78.510274,49.2294521 76.5410959,47.260274 74.5719178,45.2054795 C74.1438356,44.6917808 73.8869863,44.7773973 73.4589041,45.2054795 C67.6369863,51.0273973 61.8150685,56.9349315 55.9075342,62.7568493 C55.3938356,63.2705479 55.4794521,63.5273973 55.9075342,64.0410959 C65.0684932,73.1164384 74.1438356,82.2773973 83.3047945,91.3527397 C83.9041096,91.8664384 83.8184932,92.2089041 83.3047945,92.7226027 C76.8835616,99.1438356 70.4623288,105.479452 64.0410959,111.900685 C63.869863,112.071918 63.6130137,112.328767 63.4417808,112.5 C63.3561644,112.414384 63.2705479,112.414384 63.1849315,112.328767 C63.0136986,112.157534 62.9280822,112.071918 62.7568493,111.900685 C46.9178082,95.890411 30.9931507,79.9657534 14.9828767,64.0410959 C14.3835616,63.4417808 14.3835616,63.1849315 14.9828767,62.5856164 C30.9075342,46.7465753 46.8321918,30.8219178 62.7568493,14.8972603 C63.3561644,14.2979452 63.6130137,14.2123288 64.2123288,14.8972603 C80.1369863,30.8219178 96.0616438,46.7465753 111.986301,62.6712329 C112.585616,63.1849315 112.585616,63.5273973 111.986301,64.1267123 C108.476027,67.5513699 105.05137,71.0616438 101.541096,74.4863014 C101.113014,74.9143836 101.027397,75.1712329 101.541096,75.6849315 C103.510274,77.6541096 105.479452,79.5376712 107.44863,81.5924658 C107.876712,82.0205479 108.133562,82.1061644 108.561644,81.5924658 C114.383562,75.6849315 120.291096,69.8630137 126.113014,64.0410959 C126.626712,63.5273973 126.455479,63.2705479 126.027397,62.8424658 C116.952055,53.7671233 107.791096,44.6061644 98.7157534,35.5308219 C98.1164384,34.9315068 98.1164384,34.5890411 98.7157534,33.989726 C105.136986,27.6541096 111.558219,21.2328767 117.893836,14.8116438 C118.407534,14.2979452 118.578767,14.2979452 119.178082,14.8116438 C135.188356,30.8219178 151.19863,46.8321918 167.208904,62.8424658 C167.722603,63.1849315 167.808219,63.4417808 167.294521,63.869863 Z" id="Shape" fill="#000000"></path>
                        <path d="M422.773973,33.6472603 L493.407534,33.6472603 C494.606164,33.6472603 494.434932,33.4760274 494.434932,34.760274 L494.434932,91.2671233 C494.434932,92.1232877 494.178082,92.2945205 493.321918,92.2945205 L351.883562,92.2945205 C351.027397,92.2945205 350.770548,92.1232877 350.770548,91.2671233 L350.770548,34.6746575 C350.770548,33.8184932 351.027397,33.6472603 351.883562,33.6472603 L422.773973,33.6472603 Z M377.311644,67.4657534 L377.140411,67.4657534 C377.140411,67.2945205 377.054795,67.2089041 377.054795,67.0376712 C375.599315,59.760274 374.143836,52.5684932 372.688356,45.2910959 C372.60274,44.6917808 372.431507,44.5205479 371.746575,44.5205479 L365.325342,44.5205479 C364.726027,44.5205479 364.554795,44.6917808 364.726027,45.2910959 C367.380137,56.5924658 369.94863,67.8938356 372.517123,79.1952055 C372.60274,79.6232877 372.773973,79.880137 373.287671,79.7945205 L379.623288,79.7945205 C380.222603,79.7945205 380.479452,79.6232877 380.565068,79.0239726 C381.592466,75 382.705479,70.9760274 383.818493,66.9520548 C384.589041,64.0410959 385.445205,61.0445205 386.30137,57.8767123 C386.472603,58.390411 386.558219,58.6472603 386.643836,58.9041096 C388.441781,65.6678082 390.325342,72.3458904 392.123288,79.109589 C392.294521,79.6232877 392.465753,79.880137 393.065068,79.7945205 L399.400685,79.7945205 C399.914384,79.7945205 400.085616,79.6232877 400.256849,79.109589 C400.770548,76.5410959 401.369863,74.0582192 401.969178,71.489726 C403.938356,62.7568493 405.993151,54.0239726 407.962329,45.2910959 C408.133562,44.6061644 408.047945,44.4349315 407.277397,44.4349315 C405.136986,44.5205479 402.996575,44.5205479 400.941781,44.4349315 C400.342466,44.4349315 400.171233,44.6061644 400.085616,45.119863 C398.972603,50.9417808 397.773973,56.6780822 396.660959,62.5 C396.318493,64.1267123 395.976027,65.8390411 395.633562,67.4657534 C395.376712,67.2089041 395.291096,66.9520548 395.291096,66.6952055 C393.407534,59.5890411 391.438356,52.4828767 389.554795,45.3767123 C389.383562,44.7773973 389.297945,44.4349315 388.527397,44.5205479 C387.157534,44.6061644 385.787671,44.6061644 384.332192,44.5205479 C383.64726,44.5205479 383.476027,44.6917808 383.304795,45.2910959 C382.020548,50.2568493 380.650685,55.2226027 379.280822,60.1883562 C378.59589,62.5856164 377.996575,65.0684932 377.311644,67.4657534 Z M461.900685,65.3253425 L461.900685,79.109589 C461.900685,79.7089041 462.071918,79.880137 462.671233,79.880137 L469.006849,79.880137 C470.119863,79.880137 470.119863,79.880137 470.119863,78.7671233 L470.119863,51.7979452 C470.119863,51.0273973 470.291096,50.7705479 471.061644,50.8561644 C473.630137,50.9417808 476.113014,50.8561644 478.681507,50.8561644 C479.195205,50.8561644 479.366438,50.7705479 479.366438,50.1712329 L479.366438,45.2054795 C479.366438,44.6917808 479.195205,44.6061644 478.767123,44.6061644 L453.339041,44.6061644 C452.825342,44.6061644 452.65411,44.7773973 452.65411,45.2910959 L452.65411,50 C452.65411,50.6849315 452.825342,50.8561644 453.510274,50.8561644 L461.130137,50.8561644 C461.815068,50.8561644 461.900685,51.0273973 461.900685,51.6267123 C461.900685,56.1643836 461.900685,60.7020548 461.900685,65.3253425 Z M434.760274,62.1575342 L434.760274,45.3767123 C434.760274,44.6917808 434.589041,44.5205479 433.90411,44.5205479 C431.763699,44.6061644 429.537671,44.5205479 427.39726,44.5205479 C426.797945,44.5205479 426.541096,44.6061644 426.541096,45.2910959 L426.541096,79.0239726 C426.541096,79.6232877 426.712329,79.7945205 427.311644,79.7945205 C429.537671,79.7945205 431.763699,79.7089041 433.90411,79.7945205 C434.589041,79.7945205 434.760274,79.5376712 434.760274,78.9383562 C434.760274,73.3732877 434.760274,67.7226027 434.760274,62.1575342 Z" id="Shape" fill="#FFFFFF"></path>
                        <path d="M334.160959,62.4143836 C334.160959,61.8150685 333.989726,61.6438356 333.390411,61.6438356 L321.061644,61.6438356 C320.547945,61.6438356 320.376712,61.7294521 320.376712,62.3287671 L320.376712,66.5239726 C320.376712,67.0376712 320.547945,67.2089041 321.061644,67.2089041 L325.342466,67.2089041 C325.856164,67.2089041 326.027397,67.380137 326.027397,67.8938356 L326.027397,72.1746575 C326.027397,72.7739726 325.856164,73.0308219 325.342466,73.2876712 C323.715753,74.0582192 322.003425,74.2294521 320.291096,74.1438356 C318.150685,74.1438356 316.438356,73.2020548 315.239726,71.3184932 C314.297945,69.8630137 313.955479,68.2363014 313.955479,66.4383562 L313.955479,58.0479452 C313.955479,56.25 314.383562,54.5376712 315.410959,53.0821918 C316.952055,50.6849315 319.263699,50.0856164 321.917808,50.5993151 C324.315068,51.0273973 325.513699,52.6541096 326.027397,54.880137 C326.027397,55.0513699 326.113014,55.2226027 326.113014,55.3938356 C326.113014,55.9931507 326.455479,56.0787671 326.969178,56.0787671 L332.277397,56.0787671 C334.075342,56.0787671 334.075342,56.0787671 333.818493,54.2808219 C332.962329,49.2294521 329.794521,45.7191781 324.828767,44.6917808 C323.030822,44.3493151 321.14726,44.1780822 319.349315,44.1780822 C312.671233,44.1780822 306.849315,48.8869863 305.993151,55.5650685 C305.479452,59.760274 305.479452,64.2123288 305.907534,68.4075342 C306.506849,74.2294521 310.017123,78.1678082 315.667808,79.880137 C318.664384,80.8219178 321.660959,80.6506849 324.743151,80.1369863 C328.082192,79.6232877 330.907534,78.1678082 333.390411,75.9417808 C333.818493,75.5136986 334.246575,75.1712329 334.160959,74.4863014 C334.160959,70.3767123 334.160959,66.3527397 334.160959,62.4143836 Z" id="Shape" fill="#FFFFFF"></path>
                        <path d="M240.15411,62.6712329 C237.756849,61.2157534 235.273973,60.1883562 232.619863,59.2465753 C230.650685,58.5616438 228.681507,57.7054795 226.883562,56.7636986 C224.914384,55.7363014 224.743151,53.4246575 226.369863,51.7979452 C227.311644,50.8561644 228.424658,50.5136986 229.708904,50.3424658 C233.047945,49.9143836 235.10274,51.2842466 235.873288,54.4520548 C235.958904,54.6232877 236.215753,54.880137 236.386986,54.880137 L243.321918,54.880137 C243.75,54.880137 243.921233,54.7089041 243.921233,54.2808219 C243.835616,53.5958904 243.835616,52.8253425 243.664384,52.140411 C242.893836,48.8013699 240.667808,46.6609589 237.671233,45.2910959 C235.017123,44.0068493 232.106164,43.75 229.195205,43.9212329 C225.856164,44.0924658 222.773973,45.119863 220.034247,47.260274 C215.753425,50.7705479 216.09589,58.390411 220.976027,61.3013699 C223.544521,62.8424658 226.284247,63.9554795 229.023973,64.9828767 C230.736301,65.5821918 232.534247,66.3527397 234.160959,67.2089041 C235.616438,67.9794521 236.044521,69.4349315 235.787671,70.9760274 C235.530822,72.4315068 234.589041,73.2020548 233.219178,73.630137 C231.592466,74.0582192 229.965753,74.0582192 228.339041,73.7157534 C225.684932,73.1164384 224.486301,71.7465753 224.315068,69.0068493 C224.315068,68.4075342 224.058219,68.4075342 223.630137,68.4075342 L217.037671,68.4075342 C216.438356,68.4075342 216.267123,68.5787671 216.267123,69.1780822 C216.35274,72.260274 217.380137,75 219.94863,76.7979452 C225.941781,80.9931507 232.363014,81.4212329 239.041096,78.5958904 C246.061644,75.5993151 245.462329,66.010274 240.15411,62.6712329 Z" id="Shape" fill="#FFFFFF"></path>
                        <path d="M286.815068,44.4349315 L264.126712,44.4349315 C263.356164,44.4349315 263.099315,44.6061644 263.099315,45.3767123 L263.099315,77.0547945 C263.099315,77.9109589 262.842466,79.1952055 263.270548,79.5376712 C263.784247,79.9657534 264.982877,79.7089041 265.839041,79.7089041 L286.815068,79.7089041 C287.5,79.7089041 287.756849,79.5376712 287.671233,78.7671233 C287.585616,77.3116438 287.585616,75.7705479 287.671233,74.3150685 C287.671233,73.5445205 287.5,73.3732877 286.729452,73.3732877 L272.174658,73.3732877 C271.489726,73.3732877 271.40411,73.2020548 271.40411,72.6027397 L271.40411,65.4109589 C271.40411,64.7260274 271.660959,64.5547945 272.260274,64.5547945 L284.417808,64.5547945 C285.017123,64.5547945 285.273973,64.4691781 285.273973,63.7842466 C285.188356,62.2431507 285.188356,60.6164384 285.273973,59.0753425 C285.273973,58.390411 285.10274,58.3047945 284.503425,58.3047945 L272.517123,58.3047945 C271.575342,58.3047945 271.489726,58.0479452 271.489726,57.1917808 C271.575342,55.3082192 271.575342,53.4246575 271.489726,51.6267123 C271.489726,50.8561644 271.660959,50.5993151 272.431507,50.5993151 L286.986301,50.5993151 C287.585616,50.5993151 287.842466,50.4280822 287.756849,49.8287671 C287.671233,48.3732877 287.671233,46.8321918 287.756849,45.3767123 C287.842466,44.6917808 287.671233,44.4349315 286.815068,44.4349315 Z" id="Shape" fill="#FFFFFF"></path>
                        <path d="M63.5273973,112.414384 C63.4417808,112.328767 63.3561644,112.328767 63.2705479,112.243151 C63.0993151,112.071918 63.0136986,111.986301 62.8424658,111.815068 C46.9178082,95.890411 30.9931507,79.9657534 14.9828767,64.0410959 C14.3835616,63.4417808 14.3835616,63.1849315 14.9828767,62.5856164 C30.9075342,46.7465753 46.8321918,30.8219178 62.7568493,14.8972603 C63.3561644,14.2979452 63.6130137,14.2123288 64.2123288,14.8972603 C80.1369863,30.8219178 96.0616438,46.7465753 111.986301,62.6712329 C112.585616,63.1849315 112.585616,63.5273973 111.986301,64.1267123 C108.476027,67.5513699 105.05137,71.0616438 101.541096,74.4863014 C101.113014,74.9143836 101.027397,75.1712329 101.541096,75.6849315 C103.510274,77.6541096 105.479452,79.5376712 107.44863,81.5924658 C107.876712,82.0205479 108.133562,82.1061644 108.561644,81.5924658 C114.383562,75.6849315 120.291096,69.8630137 126.113014,64.0410959 C126.626712,63.5273973 126.455479,63.2705479 126.027397,62.8424658 C116.952055,53.7671233 107.791096,44.6061644 98.7157534,35.5308219 C98.1164384,34.9315068 98.1164384,34.5890411 98.7157534,33.989726 C105.136986,27.6541096 111.558219,21.2328767 117.893836,14.8116438 C118.407534,14.2979452 118.578767,14.2979452 119.178082,14.8116438 C135.188356,30.8219178 151.19863,46.8321918 167.208904,62.8424658 C167.636986,63.2705479 167.722603,63.5273973 167.208904,64.0410959 C151.19863,80.0513699 135.188356,96.0616438 119.178082,112.071918 C118.664384,112.585616 118.407534,112.5 117.979452,112.071918 C102.054795,95.890411 86.0445205,79.880137 70.0342466,63.9554795 C69.5205479,63.4417808 69.6061644,63.1849315 70.0342466,62.6712329 C73.630137,59.2465753 77.0547945,55.7363014 80.5650685,52.2260274 C80.9931507,51.7979452 80.9931507,51.6267123 80.5650685,51.1986301 C78.510274,49.2294521 76.5410959,47.260274 74.5719178,45.2054795 C74.1438356,44.6917808 73.8869863,44.7773973 73.4589041,45.2054795 C67.6369863,51.0273973 61.8150685,56.9349315 55.9075342,62.7568493 C55.3938356,63.2705479 55.4794521,63.5273973 55.9075342,64.0410959 C65.0684932,73.1164384 74.1438356,82.2773973 83.3047945,91.3527397 C83.9041096,91.8664384 83.8184932,92.2089041 83.3047945,92.7226027 C76.8835616,99.1438356 70.4623288,105.479452 64.0410959,111.900685 C63.9554795,112.071918 63.7842466,112.243151 63.5273973,112.414384 Z" id="Shape" fill="#FFFFFF"></path>
                        <path d="M407.277397,44.5205479 L400.941781,44.5205479 C400.342466,44.5205479 400.171233,44.6917808 400.085616,45.2054795 L395.547945,67.5513699 C395.291096,67.2945205 395.205479,67.0376712 395.205479,66.7808219 C393.321918,59.6746575 391.35274,52.5684932 389.469178,45.4623288 C389.297945,44.8630137 389.212329,44.5205479 388.441781,44.6061644 L384.246575,44.6061644 C383.561644,44.6061644 383.390411,44.7773973 383.219178,45.3767123 L377.311644,67.5513699 L377.140411,67.5513699 C377.140411,67.380137 377.054795,67.2945205 377.054795,67.1232877 C375.599315,59.8458904 374.143836,52.6541096 372.688356,45.3767123 C372.60274,44.7773973 372.431507,44.6061644 371.746575,44.6061644 L365.325342,44.6061644 C364.726027,44.6061644 364.554795,44.7773973 364.726027,45.3767123 C367.380137,56.6780822 369.94863,67.9794521 372.517123,79.2808219 C372.60274,79.7089041 372.773973,79.9657534 373.287671,79.880137 L379.623288,79.880137 C380.222603,79.880137 380.479452,79.7089041 380.565068,79.109589 L386.30137,57.9623288 C386.472603,58.4760274 386.558219,58.7328767 386.643836,58.989726 C388.441781,65.7534247 390.325342,72.4315068 392.123288,79.1952055 C392.294521,79.7089041 392.465753,79.9657534 393.065068,79.880137 L399.400685,79.880137 C399.914384,79.880137 400.085616,79.7089041 400.256849,79.1952055 L407.962329,45.4623288 C408.133562,44.6917808 408.047945,44.4349315 407.277397,44.5205479 Z" id="Shape" fill="#000000"></path>
                        <path d="M479.452055,45.119863 C479.452055,44.6061644 479.280822,44.5205479 478.85274,44.5205479 L452.739726,44.5205479 L452.739726,49.9143836 C452.739726,50.5993151 452.910959,50.7705479 453.59589,50.7705479 L461.215753,50.7705479 C461.900685,50.7705479 461.986301,50.9417808 461.986301,51.5410959 L461.986301,79.0239726 C461.986301,79.6232877 462.157534,79.7945205 462.756849,79.7945205 L469.092466,79.7945205 C470.205479,79.7945205 470.205479,79.7945205 470.205479,78.6815068 L470.205479,51.7123288 C470.205479,50.9417808 470.376712,50.6849315 471.14726,50.7705479 C473.715753,50.8561644 476.19863,50.7705479 478.767123,50.7705479 C479.280822,50.7705479 479.452055,50.6849315 479.452055,50.0856164 C479.366438,48.4589041 479.452055,46.8321918 479.452055,45.119863 Z" id="Shape" fill="#000000"></path>
                        <path d="M433.90411,44.5205479 C431.763699,44.6061644 429.537671,44.5205479 427.39726,44.5205479 C426.797945,44.5205479 426.541096,44.6061644 426.541096,45.2910959 L426.541096,79.0239726 C426.541096,79.6232877 426.712329,79.7945205 427.311644,79.7945205 C429.537671,79.7945205 431.763699,79.7089041 433.90411,79.7945205 C434.589041,79.7945205 434.760274,79.5376712 434.760274,78.9383562 L434.760274,45.3767123 C434.760274,44.6917808 434.589041,44.5205479 433.90411,44.5205479 Z" id="Shape" fill="#000000"></path>
                    </g>
                </g>
            </g>
        </g>
    </g>
</svg>