<?xml version="1.0" encoding="UTF-8"?>
<svg width="728px" height="200px" viewBox="0 0 728 200" version="1.1" xmlns="http://www.w3.org/2000/svg" xmlns:xlink="http://www.w3.org/1999/xlink" style="background: #FFFFFF;">
    <!-- Generator: Sketch 42 (36781) - http://www.bohemiancoding.com/sketch -->
    <title>bitcoin</title>
    <desc>Created with Sketch.</desc>
    <defs></defs>
    <g id="Page-1" stroke="none" stroke-width="1" fill="none" fill-rule="evenodd">
        <g id="bitcoin" fill-rule="nonzero">
            <g transform="translate(151.000000, 55.000000)" id="Shape">
                <path d="M87.95362,55.6550485 C82.025742,79.4317476 57.9439112,93.9019279 34.1644383,87.972663 C10.3946741,82.044785 -4.07550624,57.9615673 1.85514563,34.1862552 C7.78024965,10.4067822 31.8620804,-4.06478502 55.6346186,1.86309293 C79.4127046,7.79097087 93.8814979,31.8769626 87.95362,55.6550485 L87.95362,55.6550485 Z" fill="#F7931A"></path>
                <path d="M64.472344,38.5954092 C65.3558391,32.6897226 60.8593065,29.5149653 54.7109015,27.3970735 L56.7053537,19.3970735 L51.8357282,18.1834813 L49.8939806,25.972663 C48.6138141,25.6536616 47.2989736,25.3526907 45.9924549,25.0544938 L47.9480721,17.2139945 L43.0812205,16.0004022 L41.0853814,23.9976283 C40.025742,23.7562968 38.9855201,23.5177393 37.9758114,23.266699 L37.9813592,23.2417337 L31.2656865,21.564896 L29.9702635,26.7660055 C29.9702635,26.7660055 33.583301,27.5940222 33.507018,27.6453398 C35.4792788,28.1377115 35.8357282,29.4428433 35.7760888,30.4775173 L33.5042441,39.5912483 C33.6401664,39.6259223 33.8163107,39.675853 34.0104854,39.7535229 C33.8482108,39.713301 33.6748405,39.6689182 33.4959223,39.6259223 L30.3114563,52.3929126 C30.0701248,52.9920804 29.4584743,53.8908322 28.0798336,53.5496394 C28.1283773,53.6203745 24.5403051,52.6661442 24.5403051,52.6661442 L22.1228294,58.2403467 L28.4598613,59.8200971 C29.6387795,60.1155201 30.7941193,60.4248128 31.9314286,60.7160749 L29.916172,68.8076144 L34.7802497,70.0212067 L36.7760888,62.0156588 C38.1047989,62.3762691 39.3946741,62.7091401 40.65681,63.0225936 L38.6679057,70.9906935 L43.5375312,72.2042857 L45.5527878,64.1280028 C53.8565326,65.6994313 60.100638,65.0655895 62.728932,57.5551872 C64.8468239,51.5080305 62.6235229,48.0198197 58.2545908,45.7452011 C61.4362829,45.0114979 63.8329542,42.9185714 64.472344,38.5954092 L64.472344,38.5954092 Z M53.3461304,54.1973509 C51.841276,60.2445076 41.6595839,56.9754369 38.358613,56.155742 L41.0326768,45.4359085 C44.3336477,46.2597642 54.9189459,47.8908322 53.3461304,54.1973509 Z M54.8523717,38.5080305 C53.4792788,44.008724 45.0049376,41.2139945 42.2559778,40.528835 L44.6803883,30.8062275 C47.4293481,31.491387 56.2823301,32.7701664 54.8523717,38.5080305 Z" fill="#FFFFFF"></path>
                <path d="M130.588849,27.3887517 C134.188017,27.3887517 137.297587,28.0336893 139.910624,29.2999861 C142.536144,30.5787656 144.70258,32.3013731 146.440444,34.4678086 C148.15473,36.6453398 149.430735,39.1904161 150.254591,42.1071983 C151.072899,45.0323024 151.48344,48.1765465 151.48344,51.5427046 C151.48344,56.713301 150.536144,61.5981831 148.623523,66.2028988 C146.710902,70.8145492 144.115895,74.8145492 140.814924,78.2264771 C137.516727,81.6342441 133.622136,84.3207906 129.131151,86.305534 C124.647101,88.2916644 119.771928,89.2847295 114.537531,89.2847295 C113.860693,89.2847295 112.67068,89.2653121 110.989681,89.230638 C109.308682,89.1959639 107.376644,89.0225936 105.212982,88.7299445 C103.035451,88.4261997 100.733093,87.9768239 98.3017476,87.3748821 C95.8717892,86.7840361 93.5638835,85.9560194 91.3905132,84.9047018 L110.824632,3.24589459 L128.231012,0.548252427 L121.272621,29.526061 C122.762219,28.8547712 124.262913,28.3346602 125.760832,27.9560194 C127.260139,27.5829265 128.869015,27.3887517 130.588849,27.3887517 L130.588849,27.3887517 Z M115.988294,75.4761304 C118.609653,75.4761304 121.079834,74.8311928 123.400222,73.564896 C125.727545,72.2972122 127.735867,70.5857004 129.418252,68.453939 C131.100638,66.3124688 132.432122,63.9005409 133.402996,61.2056727 C134.37387,58.5108044 134.864854,55.6994313 134.864854,52.7743273 C134.864854,49.1807074 134.2643,46.377656 133.067351,44.3513037 C131.870402,42.3332732 129.655423,41.3180166 126.439057,41.3180166 C125.384965,41.3180166 124.027129,41.5191262 122.343356,41.8783495 C120.654036,42.2597642 119.142247,43.0517198 117.787184,44.2431207 L110.378031,75.0170458 C110.824632,75.0961026 111.219917,75.1709986 111.556949,75.2417337 C111.887046,75.3180166 112.251817,75.3721082 112.615201,75.4095562 C112.99939,75.452552 113.439057,75.4747434 113.970264,75.4747434 C114.50147,75.4747434 115.165825,75.4761304 115.988294,75.4761304 L115.988294,75.4761304 Z" fill="#4D4D4D"></path>
                <path d="M169.534757,87.7216227 L152.909237,87.7216227 L166.949459,28.6411789 L183.68871,28.6411789 L169.534757,87.7216227 Z M177.62491,21.4428433 C175.304521,21.4428433 173.200499,20.7521359 171.333648,19.3679473 C169.45154,17.9920804 168.519501,15.8741886 168.519501,13.0198197 C168.519501,11.4497781 168.838502,9.97682386 169.470957,8.58708738 C170.113121,7.20012483 170.952233,6.00595007 172.003551,4.99069348 C173.053481,3.98375867 174.269847,3.17932039 175.651262,2.57321775 C177.040999,1.97682386 178.519501,1.67862691 180.09509,1.67862691 C182.414092,1.67862691 184.507018,2.36933426 186.380804,3.75352288 C188.247656,5.14464632 189.18663,7.26253814 189.18663,10.1016505 C189.18663,11.6772399 188.869015,13.155742 188.231012,14.5427046 C187.597171,15.9296671 186.758058,17.1238419 185.706741,18.1390985 C184.665132,19.1474202 183.43767,19.9490846 182.059029,20.5496394 C180.667906,21.155742 179.194951,21.4428433 177.62491,21.4428433 Z" fill="#4D4D4D"></path>
                <path d="M198.258752,13.9213454 L215.672067,11.2237032 L211.396061,28.638405 L230.04516,28.638405 L226.677614,42.3388211 L208.14086,42.3388211 L203.203273,63.0045631 C202.74835,64.7271706 202.490374,66.3360472 202.418252,67.8311928 C202.336422,69.3332732 202.526436,70.6231484 202.975811,71.7091401 C203.422413,72.7979057 204.225465,73.637018 205.390513,74.230638 C206.550014,74.8339667 208.210208,75.1377115 210.387739,75.1377115 C212.181082,75.1377115 213.928655,74.9671151 215.617975,74.6286963 C217.297587,74.2958252 218.99939,73.8325798 220.721997,73.2264771 L221.961942,86.0364632 C219.715062,86.860319 217.28233,87.5690569 214.660971,88.1654508 C212.035451,88.7701664 208.927268,89.0614286 205.335035,89.0614286 C200.169986,89.0614286 196.165825,88.2944383 193.312843,86.7673925 C190.464022,85.229251 188.450153,83.1280028 187.244882,80.4678086 C186.056255,77.8173232 185.525049,74.7618447 185.673454,71.3194036 C185.827406,67.8686408 186.347517,64.2417337 187.244882,60.4220388 L198.258752,13.9213454 L198.258752,13.9213454 Z" fill="#4D4D4D"></path>
                <path d="M229.312843,64.1293897 C229.312843,59.0406241 230.136699,54.2417337 231.783024,49.749362 C233.426574,45.2528294 235.794119,41.3207906 238.866241,37.9463107 C241.927268,34.5884743 245.65681,31.9282802 250.046546,29.9754369 C254.415479,28.0336893 259.307295,27.0544938 264.698419,27.0544938 C268.072899,27.0544938 271.086768,27.3734951 273.738641,28.0128849 C276.401609,28.6578225 278.810763,29.491387 280.989681,30.5371567 L275.255978,43.5746047 C273.758058,42.9671151 272.203273,42.4317476 270.595784,41.9463107 C268.986907,41.451165 267.022968,41.2126075 264.699806,41.2126075 C259.150569,41.2126075 254.763606,43.1252288 251.498696,46.9379889 C248.246269,50.7535229 246.608266,55.8894452 246.608266,62.3318863 C246.608266,66.1501942 247.432122,69.2375728 249.085381,71.59957 C250.730319,73.9615673 253.769154,75.1363245 258.181082,75.1363245 C260.358613,75.1363245 262.459861,74.9088627 264.472344,74.4650347 C266.500083,74.0156588 268.290652,73.4497781 269.867628,72.7812621 L271.10896,86.1460333 C269.006325,86.9615673 266.687323,87.6980444 264.143634,88.342982 C261.594397,88.9657282 258.559723,89.2888904 255.040999,89.2888904 C250.396061,89.2888904 246.464022,88.6092788 243.247656,87.2708599 C240.029903,85.9116366 237.371096,84.1071983 235.276782,81.821484 C233.171373,79.5302219 231.659584,76.8547712 230.724771,73.7840361 C229.789958,70.7160749 229.312843,67.4927739 229.312843,64.1293897 L229.312843,64.1293897 Z" fill="#4D4D4D"></path>
                <path d="M303.168599,89.2888904 C299.200499,89.2888904 295.753897,88.6841748 292.83018,87.4872261 C289.914785,86.2902774 287.500083,84.6106657 285.590236,82.4331345 C283.677614,80.266699 282.246269,77.6994313 281.265687,74.7410402 C280.285104,71.7840361 279.813537,68.5094175 279.813537,64.9213454 C279.813537,60.4206519 280.536144,55.9213454 281.996616,51.4345215 C283.450153,46.9379889 285.606879,42.897767 288.461248,39.3069209 C291.293426,35.710527 294.787184,32.7701664 298.900915,30.4775173 C303.010485,28.2001248 307.737254,27.0544938 313.046546,27.0544938 C316.942524,27.0544938 320.371096,27.6605964 323.335035,28.8575451 C326.285104,30.0517198 328.715062,31.7452011 330.636006,33.9116366 C332.536144,36.0891678 333.979972,38.6453398 334.950846,41.6078918 C335.928655,44.5593481 336.411318,47.8422885 336.411318,51.4331345 C336.411318,55.9199584 335.698419,60.4192649 334.283717,64.9199584 C332.867628,69.3984605 330.76638,73.4483911 327.992455,77.0475589 C325.224078,80.638405 321.762219,83.5773786 317.604105,85.860319 C313.45154,88.1432594 308.636006,89.2888904 303.168599,89.2888904 L303.168599,89.2888904 Z M311.477892,41.2139945 C309.013259,41.2139945 306.834341,41.9296671 304.968877,43.342982 C303.096477,44.7729404 301.523662,46.5704438 300.255978,48.7382663 C298.974424,50.9157975 298.024355,53.2902774 297.382191,55.8714147 C296.745576,58.4580999 296.433509,60.9033148 296.433509,63.2264771 C296.433509,66.9754369 297.038225,69.8949931 298.226852,71.9962413 C299.432122,74.0863939 301.597171,75.1377115 304.744189,75.1377115 C307.217143,75.1377115 309.384965,74.4275867 311.261526,72.9990153 C313.122829,71.5801526 314.697032,69.7812621 315.974424,67.6092788 C317.247656,65.4428433 318.206047,63.0614286 318.848211,60.4761304 C319.476505,57.897767 319.796893,55.4386824 319.796893,53.119681 C319.796893,49.38043 319.194951,46.453939 317.995229,44.3554646 C316.796893,42.2653121 314.622136,41.2139945 311.477892,41.2139945 Z" fill="#4D4D4D"></path>
                <path d="M354.527822,87.7216227 L337.888433,87.7216227 L351.928655,28.6411789 L368.676227,28.6411789 L354.527822,87.7216227 L354.527822,87.7216227 Z M362.605492,21.4428433 C360.286491,21.4428433 358.183856,20.7521359 356.319778,19.3679473 C354.447379,17.9920804 353.507018,15.8741886 353.507018,13.0198197 C353.507018,11.4497781 353.83018,9.97682386 354.464022,8.58708738 C355.097864,7.20012483 355.942524,6.00595007 356.993842,4.99069348 C358.038225,3.98375867 359.265687,3.17932039 360.644327,2.57321775 C362.025742,1.97682386 363.504244,1.67862691 365.074286,1.67862691 C367.398835,1.67862691 369.498696,2.36933426 371.368322,3.75352288 C373.239334,5.14464632 374.183856,7.26253814 374.183856,10.1016505 C374.183856,11.6772399 373.848211,13.155742 373.219917,14.5427046 C372.591623,15.9296671 371.746963,17.1238419 370.699806,18.1390985 C369.645714,19.1474202 368.433509,19.9490846 367.052094,20.5496394 C365.659584,21.155742 364.183856,21.4428433 362.605492,21.4428433 L362.605492,21.4428433 Z" fill="#4D4D4D"></path>
                <path d="M380.658197,31.3277254 C381.920333,30.9587933 383.329487,30.5149653 384.86208,30.0323024 C386.400222,29.5496394 388.118669,29.1002635 390.038225,28.6952705 C391.936976,28.2777947 394.079834,27.9393759 396.436283,27.6772399 C398.792732,27.4095562 401.477892,27.2791817 404.461248,27.2791817 C413.229626,27.2791817 419.274008,29.8325798 422.61104,34.9241193 C425.945298,40.0156588 426.522275,46.9837587 424.358613,55.8159362 L416.710902,87.7160749 L399.975811,87.7160749 L407.387739,56.4872261 C407.839889,54.5371567 408.194951,52.6522746 408.457087,50.8103883 C408.721997,48.9851456 408.706741,47.3762691 408.397448,45.9837587 C408.102025,44.6078918 407.40577,43.4816782 406.325326,42.6092788 C405.228239,41.750749 403.570818,41.3194036 401.322552,41.3194036 C399.15473,41.3194036 396.949459,41.5524133 394.698419,42.0017892 L383.801054,87.7146879 L367.059029,87.7146879 L380.658197,31.3277254 L380.658197,31.3277254 Z" fill="#4D4D4D"></path>
            </g>
        </g>
    </g>
</svg>