<?xml version="1.0" encoding="UTF-8"?>
<svg width="728px" height="200px" viewBox="0 0 728 200" version="1.1" xmlns="http://www.w3.org/2000/svg" xmlns:xlink="http://www.w3.org/1999/xlink" style="background: #FFFFFF;">
    <!-- Generator: Sketch 42 (36781) - http://www.bohemiancoding.com/sketch -->
    <title>ripple</title>
    <desc>Created with Sketch.</desc>
    <defs>
        <linearGradient x1="28.2011753%" y1="15.3472608%" x2="103.371507%" y2="84.6528771%" id="linearGradient-1">
            <stop stop-color="#00AAE4" offset="0%"></stop>
            <stop stop-color="#006097" offset="100%"></stop>
        </linearGradient>
    </defs>
    <g id="Page-1" stroke="none" stroke-width="1" fill="none" fill-rule="evenodd">
        <g id="ripple" fill-rule="nonzero">
            <g transform="translate(173.000000, 45.000000)" id="Layer_1">
                <g>
                    <path d="M138.94471,41.4028651 C137.937687,41.0671032 135.811806,40.8431746 133.685619,40.8431746 C127.307147,40.8431746 120.481254,46.0100317 120.481254,52.3882421 L120.481254,82.8054683 L105.934627,82.8054683 L105.934627,28.5343929 L119.921956,28.5343929 L119.921956,34.017369 C123.166956,29.9890119 129.097353,27.4152302 135.699667,27.4152302 C137.350534,27.4271191 138.997526,27.5768377 140.623476,27.8628254 L138.94471,41.4028651 Z" id="Shape" fill="#434C54"></path>
                    <path d="M155.393115,0 C160.652425,0 164.904623,4.02835714 164.904623,9.28771032 C164.904623,14.5470635 160.652599,18.5751151 155.393115,18.5751151 C150.133631,18.5751151 145.881607,14.5470635 145.881607,9.28771032 C145.881607,4.02835714 150.133937,0 155.393115,0 Z M162.666472,82.8055556 L148.119714,82.8055556 L148.119714,28.5343929 L162.666472,28.5343929 L162.666472,82.8054246 L162.666472,82.8055556 Z" id="Shape" fill="#434C54"></path>
                    <path d="M205.637274,27.4125675 C199.863971,27.3394851 194.24558,29.2801133 189.748123,32.9007817 L189.748123,28.5339127 L175.757651,28.5339127 L175.757651,109.658563 L190.305762,109.658563 L190.305762,79.0016944 C194.443099,82.2700966 199.582092,84.0096512 204.854004,83.9262897 C212.911286,83.9262897 220.630361,80.3425595 225.442206,74.747619 C229.696282,69.8230675 232.265393,63.112631 232.265393,55.7257817 C232.26548,39.7239683 220.404948,27.4125675 205.637274,27.4125675 Z M203.869155,70.719 C194.832873,70.719 188.893746,64.4831786 188.893746,55.7732302 C188.893746,47.0632817 194.832873,40.827504 203.869155,40.827504 C211.58225,40.827504 217.835925,47.520131 217.835925,55.7732302 C217.835925,64.0263294 211.582294,70.719 203.869155,70.719 L203.869155,70.719 Z" id="Shape" fill="#434C54"></path>
                    <polygon id="Shape" fill="#434C54" points="320.555627 82.8054683 306.008258 82.8054683 306.008258 3.35683333 320.555627 3.35683333 320.555627 82.8056429"></polygon>
                    <path d="M379.862083,74.1890198 C374.602774,80.4553968 365.986282,83.9243254 357.594067,83.9243254 C341.368718,83.9243254 329.171508,72.7347063 329.171508,55.7259127 C329.171508,40.6194206 339.466504,27.4151429 355.58002,27.4151429 C370.574679,27.4151429 381.205175,40.0597302 381.205175,55.1661786 C381.213634,56.5534874 381.101171,57.9388942 380.869063,59.3066746 L343.270976,59.3066746 C344.05429,66.9155317 350.208877,72.1749286 357.930135,72.1749286 C364.084067,72.1749286 369.007921,68.706 371.581702,65.9085516 L379.862083,74.1890198 Z M366.322349,48.6762659 C365.874492,43.8645079 361.510897,39.1647579 355.579889,39.1647579 C349.537179,39.1647579 344.613893,43.7528492 343.942587,48.6762659 L366.322349,48.6762659 Z" id="Shape" fill="#434C54"></path>
                    <path d="M270.763516,27.4125675 C264.990301,27.3395352 259.372009,29.2801611 254.874627,32.9007817 L254.874627,28.5339127 L240.883937,28.5339127 L240.883937,109.658563 L255.432135,109.658563 L255.432135,79.0016944 C259.569456,82.2700934 264.708435,84.0096483 269.980333,83.9262897 C278.037659,83.9262897 285.75669,80.3425595 290.568536,74.747619 C294.822655,69.8230675 297.391722,63.112631 297.391722,55.7257817 C297.391722,39.7239683 285.531234,27.4125675 270.763516,27.4125675 Z M268.995397,70.719 C259.959159,70.719 254.020032,64.4831786 254.020032,55.7732302 C254.020032,47.0632817 259.959333,40.8274167 268.995397,40.8274167 C276.708492,40.8274167 282.962167,47.5200437 282.962167,55.7731429 C282.962167,64.0262421 276.708579,70.719 268.995397,70.719 Z" id="Shape" fill="#434C54"></path>
                    <path d="M75.945877,63.0330556 C72.6614603,61.1366468 68.9627976,60.586996 65.2991865,60.4590556 C62.2254286,60.3517183 57.6395198,58.3820198 57.6395198,52.7904405 C57.6395198,48.6243651 61.0167381,45.271504 65.3007579,45.1219127 C68.9640635,44.9939722 72.662377,44.443623 75.945877,42.547869 C84.1000881,37.8400754 87.697121,27.9572329 84.4767006,19.1094438 C81.2562803,10.2616547 72.1481316,5.00324712 62.875561,6.63845762 C53.6029903,8.27366812 46.8429589,16.3304167 46.8432817,25.7460675 C46.8432817,29.5051429 48.1802619,32.9644246 49.8862222,36.1728452 C51.3210238,38.8713373 52.0469365,43.8797857 47.1259643,46.7207976 C43.4653214,48.8342817 38.8967857,47.4960357 36.6148532,43.8439921 C34.6873214,40.7593651 32.3604722,37.8691587 29.1027698,35.9879841 C20.9486959,31.280196 10.5915284,33.1064235 4.53933596,40.3191315 C-1.51285653,47.5318396 -1.51285653,58.0487795 4.53933596,65.2614875 C10.5915284,72.4741956 20.9486959,74.3004231 29.1027698,69.5926349 C32.3595556,67.7121587 34.686623,64.8238294 36.6129325,61.7410794 C38.19475,59.2096389 42.1453651,55.9828849 47.1257897,58.8604762 C50.7808452,60.9723016 51.9107897,65.5992421 49.8845198,69.4103492 C48.1788214,72.6182897 46.8435437,76.0768294 46.8435437,79.83525 C46.8435582,89.2506671 53.6036379,97.3070059 62.8760133,98.9419784 C72.1483887,100.576951 81.2562186,95.3185571 84.4764993,86.4709658 C87.6967801,77.6233745 84.0998491,67.7407959 75.945877,63.0330556 Z" id="Shape" fill="url(#linearGradient-1)"></path>
                </g>
            </g>
        </g>
    </g>
</svg>