<?xml version="1.0" encoding="UTF-8" standalone="no"?>
<svg width="24px" height="24px" viewBox="0 0 24 24" version="1.1" xmlns="http://www.w3.org/2000/svg" xmlns:xlink="http://www.w3.org/1999/xlink" xmlns:sketch="http://www.bohemiancoding.com/sketch/ns">
    <!-- Generator: Sketch 3.2.2 (9983) - http://www.bohemiancoding.com/sketch -->
    <title>twitter</title>
    <desc>Created with Sketch.</desc>
    <defs></defs>
    <g id="icon" stroke="none" stroke-width="1" fill="none" fill-rule="evenodd" sketch:type="MSPage">
        <g id="Twitter" sketch:type="MSLayerGroup" transform="translate(-4.000000, -5.000000)" fill="#FFFFFF">
            <path d="M11.5310949,27 C8.75664234,27 6.17418978,26.1672646 4,24.74 C4.38435036,24.7864574 4.77544526,24.8102242 5.1719708,24.8102242 C7.47369343,24.8102242 9.59208759,24.006009 11.2734891,22.656861 C9.12364964,22.6162332 7.30928467,21.1618834 6.68414599,19.1633184 C6.98405839,19.2220628 7.29185401,19.2535426 7.60840876,19.2535426 C8.05652555,19.2535426 8.49054015,19.1921076 8.90283212,19.07713 C6.65524088,18.6150673 4.96183942,16.5818834 4.96183942,14.144574 C4.96183942,14.1234081 4.96183942,14.1023318 4.96218978,14.0813453 C5.62464234,14.4581166 6.38213139,14.6843946 7.18753285,14.7104933 C5.86928467,13.8084305 5.00186861,12.2686996 5.00186861,10.5234978 C5.00186861,9.60161435 5.24414599,8.73748879 5.6670365,7.99452915 C8.09016058,11.0379372 11.710219,13.0406278 15.7933723,13.2504036 C15.709635,12.8822422 15.6661022,12.498296 15.6661022,12.1040359 C15.6661022,9.32600897 17.8658686,7.07372197 20.5791825,7.07372197 C21.9922044,7.07372197 23.2690219,7.68466368 24.1652555,8.66233184 C25.2843212,8.43668161 26.3357664,8.01802691 27.2849927,7.44161435 C26.9181606,8.61623318 26.1392117,9.60206278 25.1248175,10.2246637 C26.1186277,10.1030493 27.0654891,9.83264574 27.9465693,9.43255605 C27.2878832,10.4413453 26.4548905,11.3273543 25.4950657,12.0365919 C25.5045255,12.252287 25.5092555,12.4692377 25.5092555,12.6873543 C25.5092555,19.3347982 20.567708,27 11.5310949,27" id="Fill-1" sketch:type="MSShapeGroup"></path>
        </g>
    </g>
</svg>