<svg id="Layer_1" data-name="Layer 1" xmlns="http://www.w3.org/2000/svg" viewBox="0 0 593 82"><defs><style>.cls-1{fill:#676c72}.cls-2{fill:#76be5e}.cls-3{fill:#a0d37f}</style></defs><path class="cls-1" d="M133.15 50.67h-17.22l-3.86 10.78h-5.59l15.69-41.19h4.75l15.72 41.19h-5.56zm-15.58-4.44h14l-7-19.27zM151.14 30.84l.17 3.85a11.1 11.1 0 0 1 9.14-4.42q9.69 0 9.77 11v20.18H165V41.19a7.14 7.14 0 0 0-1.51-4.89 6 6 0 0 0-4.62-1.59 7.57 7.57 0 0 0-4.46 1.36 9.19 9.19 0 0 0-3 3.57v21.81h-5.21V30.84zM175.67 45.89q0-7.05 3.33-11.33a11.3 11.3 0 0 1 15.89-1.8 10.39 10.39 0 0 1 1.33 1.24V18h5.22v43.45h-4.8l-.25-3.29a10.61 10.61 0 0 1-8.72 3.84 10.45 10.45 0 0 1-8.67-4.34q-3.34-4.36-3.34-11.38zm5.22.59q0 5.21 2.15 8.15a6.93 6.93 0 0 0 6 2.94 7.61 7.61 0 0 0 7.25-4.47V39a7.69 7.69 0 0 0-7.2-4.33 7 7 0 0 0-6 3q-2.2 2.98-2.2 8.81zM223.15 35.53a15.8 15.8 0 0 0-2.57-.19q-5.13 0-7 4.38v21.73h-5.22V30.84h5.08l.08 3.53a8.16 8.16 0 0 1 7.29-4.1 5.37 5.37 0 0 1 2.31.4zM224.85 45.86a18.24 18.24 0 0 1 1.76-8.09 13.18 13.18 0 0 1 4.91-5.55 13.39 13.39 0 0 1 7.19-1.95 12.89 12.89 0 0 1 10.09 4.33q3.85 4.34 3.85 11.51v.37a18.42 18.42 0 0 1-1.7 8 13 13 0 0 1-4.89 5.52 13.52 13.52 0 0 1-7.3 2 12.82 12.82 0 0 1-10.06-4.33q-3.85-4.32-3.85-11.45zm5.25.62a13.06 13.06 0 0 0 2.36 8.18 8 8 0 0 0 12.63 0q2.34-3.12 2.34-8.75A13 13 0 0 0 245 37.7a7.6 7.6 0 0 0-6.33-3.13 7.5 7.5 0 0 0-6.24 3.09q-2.32 3.08-2.33 8.82zM258.07 22.72a3.14 3.14 0 0 1 .78-2.15 2.91 2.91 0 0 1 2.3-.88 3 3 0 0 1 2.32.88 3.1 3.1 0 0 1 .79 2.15 2.83 2.83 0 0 1-2.64 3 2.46 2.46 0 0 1-.47 0 3 3 0 0 1-2.3-.85 3 3 0 0 1-.78-2.15zm5.65 38.73h-5.22V30.84h5.22zM269.65 45.89q0-7.05 3.33-11.33a11.3 11.3 0 0 1 15.89-1.8A10.39 10.39 0 0 1 290.2 34V18h5.22v43.45h-4.8l-.25-3.29a10.61 10.61 0 0 1-8.72 3.84 10.43 10.43 0 0 1-8.65-4.34q-3.35-4.36-3.34-11.38zm5.22.59q0 5.21 2.15 8.15a6.92 6.92 0 0 0 6 2.94 7.61 7.61 0 0 0 7.25-4.47V39a7.69 7.69 0 0 0-7.2-4.33 7 7 0 0 0-6 3c-1.48 1.99-2.2 4.93-2.2 8.81zM339 50.67h-17.18L318 61.45h-5.59l15.7-41.19h4.74l15.72 41.19H343zm-15.58-4.44h14l-7-19.27zM377.88 46.48q0 7-3.19 11.26a10.2 10.2 0 0 1-8.63 4.26 11.21 11.21 0 0 1-8.76-3.53v14.74h-5.22V30.84h4.77l.26 3.39a10.74 10.74 0 0 1 8.86-4 10.43 10.43 0 0 1 8.71 4.16q3.21 4.15 3.2 11.57zm-5.22-.59q0-5.18-2.2-8.18a7.09 7.09 0 0 0-6-3 7.7 7.7 0 0 0-7.12 4.22v14.62a7.71 7.71 0 0 0 7.18 4.19 7.07 7.07 0 0 0 6-3q2.15-2.95 2.14-8.85zM409.16 46.48q0 7-3.19 11.26a10.2 10.2 0 0 1-8.63 4.26 11.21 11.21 0 0 1-8.76-3.53v14.74h-5.22V30.84h4.77l.26 3.39a10.74 10.74 0 0 1 8.86-4 10.41 10.41 0 0 1 8.75 4.2q3.19 4.16 3.2 11.57zm-5.22-.59q0-5.18-2.2-8.18a7.09 7.09 0 0 0-6-3 7.7 7.7 0 0 0-7.12 4.22v14.62a7.72 7.72 0 0 0 7.17 4.19 7 7 0 0 0 6-3q2.15-2.95 2.15-8.85zM428.62 61.45V20.26h13.43q6.69 0 10.07 2.77c2.24 1.85 3.37 4.58 3.37 8.21a8.35 8.35 0 0 1-1.64 5.1 10.56 10.56 0 0 1-4.46 3.44 9.52 9.52 0 0 1 5.27 3.55 10.17 10.17 0 0 1 1.93 6.24 11 11 0 0 1-3.59 8.71q-3.58 3.16-10.14 3.17zM434 37.83h8.18a8.6 8.6 0 0 0 5.73-1.83 6 6 0 0 0 2.09-4.81c0-2.27-.66-3.91-2-4.94s-3.33-1.55-6-1.55h-8zm0 4.35V57h9a8.57 8.57 0 0 0 6-2 6.89 6.89 0 0 0 2.19-5.42q0-7.44-8.07-7.44zM481.49 58.42q-3 3.59-8.95 3.59-4.87 0-7.44-2.84c-1.7-1.9-2.56-4.7-2.58-8.42V30.84h5.22v19.77q0 7 5.65 7 6 0 8-4.47v-22.3h5.22v30.61h-5zM498.29 30.84l.17 3.85a11.1 11.1 0 0 1 9.14-4.42q9.69 0 9.77 11v20.18h-5.22V41.19a7 7 0 0 0-1.51-4.89 6 6 0 0 0-4.64-1.59 7.57 7.57 0 0 0-4.46 1.36 9.19 9.19 0 0 0-3 3.57v21.81h-5.22V30.84zM522.82 45.89q0-7.05 3.33-11.33a11.3 11.3 0 0 1 15.85-1.8 10.39 10.39 0 0 1 1.37 1.24V18h5.22v43.45h-4.8l-.25-3.29a10.61 10.61 0 0 1-8.72 3.84 10.42 10.42 0 0 1-8.65-4.35q-3.34-4.36-3.35-11.38zm5.22.59q0 5.21 2.15 8.15a6.93 6.93 0 0 0 5.93 2.94 7.61 7.61 0 0 0 7.25-4.47V39a7.69 7.69 0 0 0-7.2-4.33 7 7 0 0 0-6 3c-1.41 2-2.17 4.93-2.17 8.81zM561.21 61.45H556V18h5.22zM581.09 62A13.34 13.34 0 0 1 571 57.92q-3.9-4.08-3.89-10.93V46a18.39 18.39 0 0 1 1.73-8.13 13.58 13.58 0 0 1 4.86-5.6 12.21 12.21 0 0 1 6.76-2q6 0 9.26 3.94T593 45.46v2.18h-20.69A10.77 10.77 0 0 0 575 55a8.27 8.27 0 0 0 6.42 2.79 9.12 9.12 0 0 0 4.69-1.13 11.58 11.58 0 0 0 3.35-3l3.19 2.49Q588.76 62 581.09 62zm-.65-27.44a7 7 0 0 0-5.31 2.31 11.19 11.19 0 0 0-2.65 6.46h15.3V43a10 10 0 0 0-2.15-6.18 6.52 6.52 0 0 0-5.19-2.25z" transform="translate(0 -.41)"/><path class="cls-2" d="M63.1 22.1v37.8L82 41 63.1 22.1z"/><path class="cls-3" d="M63.1 3.24V18.9h15.66L63.1 3.24zM78.76 63.1H63.1v15.66L78.76 63.1zM18.9 78.76V63.1H3.24L18.9 78.76zM3.24 18.9H18.9V3.24L3.24 18.9z"/><path fill="#4b7d2f" d="M22.1 22.1h37.79v37.79H22.1z"/><path class="cls-2" d="M22.1 18.9h37.8L41 0 22.1 18.9zM18.9 22.1L0 41l18.9 18.9V22.1zM41 82l18.9-18.9H22.1L41 82z"/></svg>
