<svg xmlns="http://www.w3.org/2000/svg" viewBox="0 -960 960 960"><path d="m480.03-281.83q-82.36 0-140.28-57.99-57.92-57.98-57.92-140.25 0-82.26 57.99-140.35 57.98-58.08 140.25-58.08 82.26 0 140.35 58.05 58.08 58.05 58.08 140.42 0 82.36-58.05 140.28t-140.42 57.92zm-281.53-166.67h-156.67v-63.33h156.67zm720 0h-156.67v-63.33h156.67zm-470-313.33v-156.67h63.33v156.67zm0 720v-156.67h63.33v156.67h-63.33zm-188.5-616-98.33-94.5 45.66-47 94.5 98zm493.33 496.5-95.16-98.34 42.5-43.5 97.66 95.5zm-96.16-539.34 95.16-97.66 47 45-97.33 95.5zm-495.84 493.34 97.67-95.5 44.17 43.5-95 97.16z"/></svg>